<svg width="720" height="51" viewBox="0 0 720 51" fill="none" xmlns="http://www.w3.org/2000/svg">
<rect y="-16" width="720" height="84"/>
<g mask="url(#mask0_1521_6074)">
<path d="M-19.8958 32.1053C-19.8958 33.3941 -20.9406 34.4388 -22.2294 34.4388H-23.6768C-24.1662 34.4388 -24.5629 34.0421 -24.5629 33.5527V32.7041C-24.5629 32.6834 -24.5797 32.6665 -24.6005 32.6665C-24.6138 32.6665 -24.6262 32.6737 -24.633 32.6851C-25.541 34.2087 -27.1718 34.9705 -29.5254 34.9705C-31.9869 34.9705 -33.9758 34.1336 -35.4921 32.4598C-36.9888 30.7662 -37.7371 28.6788 -37.7371 26.1976C-37.7371 23.7558 -36.9888 21.6979 -35.4921 20.0241C-33.9758 18.3305 -32.0164 17.4838 -29.614 17.4838C-29.4513 17.4838 -29.291 17.4884 -29.133 17.4976C-27.3541 17.6015 -24.7992 16.3541 -24.7992 14.5722C-24.7992 13.4722 -23.9074 12.5804 -22.8074 12.5804H-22.3475C-20.9935 12.5804 -19.8958 13.678 -19.8958 15.0321V32.1053ZM-24.5334 26.1681C-24.5334 24.9865 -24.9272 24.0118 -25.7149 23.2438C-26.5026 22.4561 -27.4872 22.0622 -28.6688 22.0622C-29.8503 22.0622 -30.8448 22.4561 -31.6521 23.2438C-32.4398 24.0118 -32.8337 24.9865 -32.8337 26.1681C-32.8337 27.389 -32.4595 28.4032 -31.7112 29.2105C-30.9432 29.9982 -29.9488 30.3921 -28.7278 30.3921C-27.5069 30.3921 -26.5026 29.9982 -25.7149 29.2105C-24.9272 28.4032 -24.5334 27.389 -24.5334 26.1681Z" fill="white"/>
<path d="M0.0202484 26.4339C0.0202484 27.194 -0.645008 27.7336 -1.40507 27.7336H-9.71555C-11.1235 27.7336 -12.2122 29.1248 -11.1158 30.0081C-10.3871 30.5595 -9.53052 30.8352 -8.54591 30.8352C-7.75593 30.8352 -7.04958 30.6063 -6.42686 30.1485C-5.80847 29.6939 -5.11465 29.2992 -4.34716 29.2992C-2.54659 29.2992 -1.37202 31.1695 -2.64342 32.4445C-2.98843 32.7905 -3.36085 33.1107 -3.76067 33.405C-5.15883 34.4487 -6.75391 34.9705 -8.54591 34.9705C-10.9484 34.9705 -12.9964 34.1238 -14.6899 32.4302C-16.3834 30.7367 -17.2302 28.6887 -17.2302 26.2862C-17.2302 23.8838 -16.3933 21.8161 -14.7194 20.0832C-13.0456 18.3502 -11.0173 17.4838 -8.63452 17.4838C-6.15329 17.4838 -4.09544 18.3502 -2.46098 20.0832C-0.806828 21.8161 0.0202484 23.933 0.0202484 26.4339ZM-7.37381 24.4253C-6.09799 24.4253 -5.17419 23.1287 -6.21237 22.3872C-6.9016 21.8752 -7.69914 21.6192 -8.60498 21.6192C-9.51083 21.6192 -10.3084 21.8752 -10.9976 22.3872C-12.0358 23.1287 -11.112 24.4253 -9.83615 24.4253H-7.37381Z" fill="white"/>
<path d="M15.0401 29.4173C15.0401 31.1699 14.3804 32.5385 13.061 33.5232C11.7416 34.5078 10.1761 35.0001 8.3644 35.0001C6.5724 35.0001 5.0561 34.5275 3.81548 33.5822C3.28859 33.1808 2.8576 32.7083 2.52251 32.1648C1.74937 30.9107 2.96912 29.565 4.44236 29.565H5.24723C6.00506 29.565 6.58088 30.2271 7.18286 30.6875C7.51763 30.9435 7.93117 31.0715 8.42348 31.0715C8.83702 31.0715 9.22102 30.9632 9.57548 30.7465C9.94963 30.5102 10.1367 30.1952 10.1367 29.8013C10.1367 29.6438 10.1072 29.4961 10.0481 29.3582C10.0087 29.2204 9.93979 29.0924 9.84132 28.9742C9.74286 28.8561 9.6444 28.7576 9.54594 28.6788C9.46717 28.6001 9.33917 28.5213 9.16194 28.4425C8.98471 28.3441 8.84686 28.2752 8.7484 28.2358C8.66963 28.1964 8.52194 28.1373 8.30532 28.0585C8.1084 27.9798 7.9804 27.9305 7.92132 27.9108C6.97609 27.5958 6.26717 27.3496 5.79455 27.1724C3.19517 26.2272 1.89548 24.7995 1.89548 22.8893C1.89548 21.2548 2.52563 19.9453 3.78594 18.9607C5.06594 17.9761 6.55271 17.4838 8.24625 17.4838C9.95948 17.4838 11.397 17.9268 12.5589 18.813C13.0759 19.2074 13.4936 19.6798 13.8117 20.2302C14.496 21.414 13.3468 22.653 11.9794 22.653C10.7294 22.653 9.43714 21.4124 8.18717 21.4124C7.83271 21.4124 7.50779 21.5108 7.2124 21.7078C6.93671 21.9047 6.79886 22.1705 6.79886 22.5053C6.79886 22.8992 6.99578 23.2339 7.38963 23.5096C7.80317 23.7853 8.31517 24.0019 8.92563 24.1595C9.53609 24.2973 10.1958 24.4942 10.9047 24.7502C11.6333 25.0062 12.3029 25.3016 12.9133 25.6364C13.5238 25.9515 14.0259 26.4339 14.4198 27.0838C14.8333 27.7336 15.0401 28.5115 15.0401 29.4173Z" fill="white"/>
<path d="M31.8482 19.9945C33.5417 21.6487 34.3885 23.7262 34.3885 26.2272C34.3885 28.7281 33.5417 30.8056 31.8482 32.4598C30.1743 34.1139 28.0771 34.941 25.5565 34.941C23.0359 34.941 20.9288 34.1139 19.2352 32.4598C17.5614 30.8056 16.7245 28.7281 16.7245 26.2272C16.7245 23.7262 17.5614 21.6487 19.2352 19.9945C20.9288 18.3404 23.0359 17.5133 25.5565 17.5133C28.0771 17.5133 30.1743 18.3404 31.8482 19.9945ZM28.3626 29.1515C29.1109 28.3244 29.4851 27.3496 29.4851 26.2272C29.4851 25.1047 29.1109 24.1398 28.3626 23.3324C27.6143 22.5053 26.6789 22.0918 25.5565 22.0918C24.434 22.0918 23.4986 22.5053 22.7503 23.3324C22.002 24.1398 21.6279 25.1047 21.6279 26.2272C21.6279 27.3496 22.002 28.3244 22.7503 29.1515C23.4986 29.9588 24.434 30.3625 25.5565 30.3625C26.6789 30.3625 27.6143 29.9588 28.3626 29.1515Z" fill="white"/>
<path d="M41.7805 31.9872C41.7805 33.3412 40.6828 34.4388 39.3288 34.4388C37.9748 34.4388 36.8771 33.3412 36.8771 31.9872V15.0321C36.8771 13.678 37.9748 12.5804 39.3288 12.5804C40.6828 12.5804 41.7805 13.678 41.7805 15.0321V31.9872Z" fill="white"/>
<path d="M57.1979 18.045C58.8252 18.045 59.9595 19.6595 59.4078 21.1904L55.4291 32.2315C54.9518 33.5559 53.6952 34.4388 52.2873 34.4388C50.8775 34.4388 49.6196 33.5535 49.1437 32.2265L45.1867 21.1904C44.6374 19.6584 45.7729 18.045 47.4004 18.045C48.4338 18.045 49.3462 18.7197 49.6489 19.7078L52.2619 28.2371C52.267 28.2538 52.2825 28.2653 52.3001 28.2653C52.3176 28.2653 52.3331 28.2538 52.3383 28.2371L54.9519 19.706C55.2542 18.7189 56.1656 18.045 57.1979 18.045Z" fill="white"/>
<path d="M78.5972 26.4339C78.5972 27.194 77.9319 27.7336 77.1719 27.7336H68.8614C67.4534 27.7336 66.3647 29.1248 67.4612 30.0081C68.1898 30.5595 69.0464 30.8352 70.031 30.8352C70.821 30.8352 71.5273 30.6063 72.1501 30.1485C72.7684 29.6939 73.4623 29.2992 74.2298 29.2992C76.0303 29.2992 77.2049 31.1695 75.9335 32.4445C75.5885 32.7905 75.2161 33.1107 74.8163 33.405C73.4181 34.4487 71.823 34.9705 70.031 34.9705C67.6286 34.9705 65.5806 34.1238 63.887 32.4302C62.1935 30.7367 61.3467 28.6887 61.3467 26.2862C61.3467 23.8838 62.1836 21.8161 63.8575 20.0832C65.5313 18.3502 67.5596 17.4838 69.9424 17.4838C72.4236 17.4838 74.4815 18.3502 76.1159 20.0832C77.7701 21.8161 78.5972 23.933 78.5972 26.4339ZM71.2031 24.4253C72.4789 24.4253 73.4027 23.1287 72.3646 22.3872C71.6753 21.8752 70.8778 21.6192 69.9719 21.6192C69.0661 21.6192 68.2686 21.8752 67.5793 22.3872C66.5411 23.1287 67.4649 24.4253 68.7408 24.4253H71.2031Z" fill="white"/>
<path d="M153.227 19.1117C154.132 21.2956 154.597 23.6362 154.597 26H149.197C149.197 24.3453 148.871 22.7069 148.238 21.1782C147.605 19.6495 146.677 18.2605 145.507 17.0905C144.337 15.9204 142.948 14.9923 141.419 14.3591C139.89 13.7259 138.252 13.4 136.597 13.4C134.943 13.4 133.304 13.7259 131.775 14.3591C130.247 14.9923 128.858 15.9204 127.688 17.0905C126.518 18.2605 125.589 19.6495 124.956 21.1782C124.323 22.7069 123.997 24.3453 123.997 26H118.597C118.597 23.6362 119.063 21.2956 119.967 19.1117C120.872 16.9278 122.198 14.9435 123.869 13.2721C125.541 11.6006 127.525 10.2748 129.709 9.37017C131.893 8.46558 134.233 8 136.597 8C138.961 8 141.302 8.46558 143.485 9.37017C145.669 10.2748 147.654 11.6006 149.325 13.2721C150.997 14.9435 152.322 16.9278 153.227 19.1117Z" fill="url(#paint1_angular_1521_6074)"/>
<path d="M147.555 40.2804C150.698 37.8682 152.958 34.4861 153.984 30.6587L148.768 29.2611C148.05 31.9403 146.468 34.3077 144.268 35.9963C142.067 37.6848 139.371 38.6 136.597 38.6C133.823 38.6 131.127 37.6848 128.927 35.9963C126.726 34.3077 125.144 31.9403 124.427 29.2611L119.211 30.6587C120.236 34.4861 122.496 37.8682 125.639 40.2804C128.783 42.6925 132.635 44 136.597 44C140.56 44 144.411 42.6925 147.555 40.2804Z" fill="url(#paint2_angular_1521_6074)"/>
<path d="M136.597 24.275C135.603 24.275 134.797 25.0809 134.797 26.075C134.797 27.0691 135.603 27.875 136.597 27.875C137.591 27.875 138.397 27.0691 138.397 26.075C138.397 25.0809 137.591 24.275 136.597 24.275Z" fill="white"/>
<path d="M133.29 24.6512L126.097 26.075L133.29 27.4987C133.101 27.062 132.997 26.5807 132.997 26.075C132.997 25.5693 133.101 25.0879 133.29 24.6512Z" fill="white"/>
<path d="M154.597 26.1875H154.785V26C154.785 23.6116 154.314 21.2466 153.4 19.0399C152.486 16.8333 151.147 14.8284 149.458 13.1395C147.769 11.4506 145.764 10.1109 143.557 9.19694C141.351 8.28293 138.986 7.8125 136.597 7.8125C134.209 7.8125 131.844 8.28293 129.637 9.19694C127.431 10.1109 125.426 11.4506 123.737 13.1395C122.048 14.8284 120.708 16.8333 119.794 19.0399C118.88 21.2466 118.41 23.6116 118.41 26V26.1875H118.597H123.997H124.185V26C124.185 24.37 124.506 22.7559 125.13 21.2499C125.753 19.744 126.668 18.3756 127.82 17.223C128.973 16.0704 130.341 15.1561 131.847 14.5323C133.353 13.9086 134.967 13.5875 136.597 13.5875C138.227 13.5875 139.841 13.9086 141.347 14.5323C142.853 15.1561 144.222 16.0704 145.374 17.223C146.527 18.3756 147.441 19.744 148.065 21.2499C148.689 22.7559 149.01 24.37 149.01 26V26.1875H149.197H154.597ZM154.165 30.7073L154.213 30.5262L154.032 30.4776L148.816 29.08L148.635 29.0315L148.587 29.2126C147.88 31.8519 146.321 34.1841 144.153 35.8475C141.986 37.5109 139.33 38.4125 136.597 38.4125C133.865 38.4125 131.209 37.5109 129.041 35.8475C126.873 34.1841 125.315 31.8519 124.608 29.2126L124.559 29.0315L124.378 29.08L119.162 30.4776L118.981 30.5262L119.029 30.7073C120.066 34.5745 122.349 37.9918 125.525 40.4291C128.702 42.8664 132.593 44.1875 136.597 44.1875C140.601 44.1875 144.493 42.8664 147.669 40.4291C150.845 37.9918 153.129 34.5745 154.165 30.7073ZM133.462 24.7254L133.603 24.3981L133.253 24.4673L126.061 25.891V26.2589L133.253 27.6826L133.603 27.7519L133.462 27.4245C133.284 27.0108 133.185 26.5547 133.185 26.075C133.185 25.5953 133.284 25.1391 133.462 24.7254ZM136.597 24.0875C135.5 24.0875 134.61 24.9773 134.61 26.075C134.61 27.1727 135.5 28.0625 136.597 28.0625C137.695 28.0625 138.585 27.1727 138.585 26.075C138.585 24.9773 137.695 24.0875 136.597 24.0875Z" stroke="white" stroke-width="0.375"/>
<path d="M182.123 27.0385V17.0416H185.806V27.4262C185.806 28.6077 185.631 29.6416 185.28 30.5277C184.948 31.4139 184.468 32.1616 183.84 32.7708C183.213 33.38 182.474 33.8785 181.625 34.2662C180.794 34.6354 179.88 34.9031 178.883 35.0693C177.905 35.2354 176.871 35.3185 175.782 35.3185C174.656 35.3185 173.585 35.2354 172.569 35.0693C171.554 34.9031 170.622 34.6354 169.773 34.2662C168.942 33.8785 168.222 33.38 167.613 32.7708C167.003 32.1616 166.523 31.4139 166.173 30.5277C165.84 29.6416 165.674 28.6077 165.674 27.4262V17.0416H169.357V27.0385C169.357 28.4416 169.634 29.5123 170.188 30.2508C170.742 30.9708 171.499 31.4693 172.459 31.7462C173.437 32.0047 174.545 32.1339 175.782 32.1339C176.982 32.1339 178.053 32.0047 178.994 31.7462C179.954 31.4693 180.711 30.9708 181.265 30.2508C181.837 29.5123 182.123 28.4416 182.123 27.0385Z" fill="white"/>
<path d="M189.042 30.3893H192.366C192.569 31.017 192.984 31.5339 193.612 31.94C194.258 32.3277 195.098 32.5216 196.132 32.5216C196.833 32.5216 197.378 32.457 197.766 32.3277C198.153 32.1985 198.421 32.0139 198.569 31.7739C198.716 31.5154 198.79 31.2293 198.79 30.9154C198.79 30.5277 198.67 30.2323 198.43 30.0293C198.19 29.8077 197.821 29.6323 197.322 29.5031C196.824 29.3739 196.187 29.2539 195.412 29.1431C194.636 29.0139 193.889 28.857 193.169 28.6723C192.449 28.4877 191.812 28.2477 191.258 27.9523C190.704 27.6385 190.261 27.2508 189.929 26.7893C189.615 26.3093 189.458 25.7277 189.458 25.0447C189.458 24.38 189.615 23.7893 189.929 23.2723C190.261 22.7554 190.713 22.3216 191.286 21.9708C191.876 21.62 192.559 21.3523 193.335 21.1677C194.129 20.9831 194.978 20.8908 195.882 20.8908C197.249 20.8908 198.384 21.0939 199.289 21.5C200.193 21.8877 200.867 22.4416 201.31 23.1616C201.772 23.8631 202.002 24.6754 202.002 25.5985H198.818C198.67 24.9154 198.375 24.4262 197.932 24.1308C197.489 23.817 196.806 23.66 195.882 23.66C194.978 23.66 194.295 23.7985 193.833 24.0754C193.372 24.3523 193.141 24.7308 193.141 25.2108C193.141 25.5985 193.279 25.9031 193.556 26.1247C193.852 26.3277 194.276 26.4939 194.83 26.6231C195.402 26.7523 196.113 26.8908 196.962 27.0385C197.682 27.1862 198.366 27.3523 199.012 27.537C199.676 27.7216 200.267 27.9616 200.784 28.257C201.301 28.5339 201.707 28.9123 202.002 29.3923C202.316 29.8539 202.473 30.4447 202.473 31.1647C202.473 32.0508 202.215 32.7985 201.698 33.4077C201.199 34.017 200.479 34.4877 199.538 34.82C198.596 35.1339 197.47 35.2908 196.159 35.2908C194.996 35.2908 193.99 35.1708 193.141 34.9308C192.31 34.6723 191.618 34.3493 191.064 33.9616C190.51 33.5554 190.076 33.1308 189.762 32.6877C189.467 32.2262 189.264 31.7924 189.153 31.3862C189.042 30.98 189.006 30.6477 189.042 30.3893Z" fill="white"/>
<path d="M217.772 30.3893H221.261C221.113 31.3308 220.717 32.1708 220.07 32.9093C219.443 33.6477 218.584 34.2293 217.495 34.6539C216.406 35.0785 215.077 35.2908 213.507 35.2908C211.753 35.2908 210.203 35.0139 208.855 34.46C207.507 33.8877 206.455 33.0662 205.698 31.9954C204.941 30.9247 204.563 29.6323 204.563 28.1185C204.563 26.6047 204.932 25.3123 205.67 24.2416C206.409 23.1523 207.433 22.3216 208.744 21.7493C210.073 21.177 211.624 20.8908 213.397 20.8908C215.206 20.8908 216.71 21.177 217.91 21.7493C219.11 22.3216 219.997 23.1893 220.569 24.3523C221.16 25.497 221.409 26.9647 221.317 28.7554H208.19C208.283 29.457 208.541 30.0939 208.966 30.6662C209.409 31.2385 210 31.6908 210.738 32.0231C211.495 32.3554 212.39 32.5216 213.424 32.5216C214.569 32.5216 215.52 32.3277 216.277 31.94C217.052 31.5339 217.55 31.017 217.772 30.3893ZM213.23 23.6323C211.901 23.6323 210.821 23.9277 209.99 24.5185C209.16 25.0908 208.624 25.8016 208.384 26.6508H217.744C217.652 25.7277 217.209 24.9985 216.415 24.4631C215.64 23.9093 214.578 23.6323 213.23 23.6323Z" fill="white"/>
<path d="M223.995 21.1954H227.595V34.9585H223.995V21.1954ZM232.885 24.1585C231.851 24.1585 230.955 24.3616 230.198 24.7677C229.442 25.1554 228.832 25.6354 228.371 26.2077C227.909 26.78 227.586 27.3339 227.402 27.8693L227.374 26.3462C227.392 26.1247 227.466 25.8016 227.595 25.377C227.725 24.9339 227.918 24.4631 228.177 23.9647C228.435 23.4477 228.777 22.9585 229.202 22.497C229.626 22.017 230.143 21.6293 230.752 21.3339C231.362 21.0385 232.072 20.8908 232.885 20.8908V24.1585Z" fill="white"/>
<path d="M256.489 28.5062C256.322 29.9462 255.815 31.1739 254.966 32.1893C254.116 33.2047 252.962 33.98 251.504 34.5154C250.046 35.0508 248.31 35.3185 246.298 35.3185C244.618 35.3185 243.076 35.1247 241.673 34.737C240.289 34.3493 239.089 33.7677 238.073 32.9923C237.076 32.217 236.301 31.257 235.747 30.1124C235.193 28.9493 234.916 27.5924 234.916 26.0416C234.916 24.4908 235.193 23.1339 235.747 21.9708C236.301 20.8077 237.076 19.8385 238.073 19.0631C239.089 18.2693 240.289 17.6785 241.673 17.2908C243.076 16.8847 244.618 16.6816 246.298 16.6816C248.31 16.6816 250.046 16.9585 251.504 17.5123C252.981 18.0662 254.144 18.86 254.993 19.8939C255.842 20.9093 256.341 22.1462 256.489 23.6047H252.833C252.593 22.8293 252.187 22.1647 251.615 21.6108C251.061 21.0385 250.341 20.6047 249.455 20.3093C248.569 20.0139 247.516 19.8662 246.298 19.8662C244.784 19.8662 243.455 20.1062 242.31 20.5862C241.166 21.0477 240.279 21.74 239.652 22.6631C239.024 23.5677 238.71 24.6939 238.71 26.0416C238.71 27.3708 239.024 28.4877 239.652 29.3923C240.279 30.297 241.166 30.9893 242.31 31.4693C243.455 31.9308 244.784 32.1616 246.298 32.1616C247.516 32.1616 248.559 32.0139 249.427 31.7185C250.313 31.4231 251.033 30.9985 251.587 30.4447C252.159 29.8908 252.575 29.2447 252.833 28.5062H256.489Z" fill="white"/>
<path d="M266.313 35.2631C264.947 35.2631 263.701 34.9677 262.574 34.377C261.467 33.7677 260.581 32.9277 259.916 31.857C259.27 30.7677 258.947 29.5124 258.947 28.0908C258.947 26.6323 259.279 25.3677 259.944 24.297C260.608 23.2262 261.504 22.3954 262.63 21.8047C263.774 21.1954 265.067 20.8908 266.507 20.8908C268.094 20.8908 269.368 21.2139 270.328 21.86C271.307 22.4877 272.018 23.3462 272.461 24.4354C272.904 25.5247 273.125 26.7431 273.125 28.0908C273.125 28.9031 272.996 29.7339 272.738 30.5831C272.479 31.4139 272.082 32.1893 271.547 32.9093C271.011 33.6108 270.31 34.1831 269.442 34.6262C268.574 35.0508 267.531 35.2631 266.313 35.2631ZM267.476 32.4939C268.565 32.4939 269.507 32.3093 270.301 31.94C271.094 31.5708 271.704 31.0539 272.128 30.3893C272.553 29.7247 272.765 28.9585 272.765 28.0908C272.765 27.1493 272.544 26.3554 272.101 25.7093C271.676 25.0447 271.067 24.5462 270.273 24.2139C269.498 23.8631 268.565 23.6877 267.476 23.6877C265.944 23.6877 264.753 24.0939 263.904 24.9062C263.054 25.7 262.63 26.7616 262.63 28.0908C262.63 28.977 262.833 29.7523 263.239 30.417C263.645 31.0631 264.208 31.5708 264.928 31.94C265.667 32.3093 266.516 32.4939 267.476 32.4939ZM272.765 21.1954H276.365V34.9585H273.014C273.014 34.9585 272.987 34.7831 272.931 34.4324C272.894 34.0631 272.858 33.6016 272.821 33.0477C272.784 32.4939 272.765 31.9493 272.765 31.4139V21.1954Z" fill="white"/>
<path d="M279.623 21.1954H283.223V34.9585H279.623V21.1954ZM289.62 20.8908C290.47 20.8908 291.254 21.0016 291.974 21.2231C292.694 21.4447 293.322 21.7862 293.857 22.2477C294.393 22.7093 294.808 23.3 295.103 24.02C295.399 24.7216 295.546 25.5616 295.546 26.54V34.9585H291.946V27.177C291.946 26.0139 291.66 25.1647 291.088 24.6293C290.534 24.0754 289.62 23.7985 288.346 23.7985C287.386 23.7985 286.519 23.9831 285.743 24.3523C284.968 24.7216 284.34 25.1923 283.86 25.7647C283.38 26.3185 283.103 26.9 283.03 27.5093L283.002 26.097C283.094 25.4508 283.306 24.8231 283.639 24.2139C283.971 23.6047 284.414 23.0508 284.968 22.5523C285.54 22.0354 286.214 21.6293 286.99 21.3339C287.765 21.0385 288.642 20.8908 289.62 20.8908Z" fill="white"/>
<path d="M309.541 17.0416C311.553 17.0416 313.233 17.2816 314.581 17.7616C315.929 18.2416 316.999 18.897 317.793 19.7277C318.606 20.54 319.178 21.4816 319.51 22.5523C319.861 23.6231 320.036 24.7493 320.036 25.9308C320.036 27.1123 319.843 28.2477 319.455 29.337C319.086 30.4262 318.486 31.3954 317.655 32.2447C316.843 33.0754 315.763 33.74 314.415 34.2385C313.086 34.7185 311.461 34.9585 309.541 34.9585H299.295V17.0416H309.541ZM302.978 31.8016H309.458C310.787 31.8016 311.886 31.6447 312.753 31.3308C313.639 30.9985 314.341 30.5554 314.858 30.0016C315.375 29.4477 315.744 28.82 315.966 28.1185C316.187 27.417 316.298 26.6877 316.298 25.9308C316.298 25.1739 316.187 24.4539 315.966 23.7708C315.744 23.0877 315.375 22.4785 314.858 21.9431C314.341 21.4077 313.639 20.9831 312.753 20.6693C311.886 20.3554 310.787 20.1985 309.458 20.1985H302.978V31.8016Z" fill="white"/>
<path d="M331.277 35.2908C329.542 35.2908 328.009 35.0139 326.68 34.46C325.369 33.9062 324.345 33.1031 323.606 32.0508C322.868 30.98 322.498 29.6693 322.498 28.1185C322.498 26.5677 322.868 25.257 323.606 24.1862C324.345 23.097 325.369 22.2754 326.68 21.7216C328.009 21.1677 329.542 20.8908 331.277 20.8908C333.012 20.8908 334.526 21.1677 335.818 21.7216C337.129 22.2754 338.154 23.097 338.892 24.1862C339.631 25.257 340 26.5677 340 28.1185C340 29.6693 339.631 30.98 338.892 32.0508C338.154 33.1031 337.129 33.9062 335.818 34.46C334.526 35.0139 333.012 35.2908 331.277 35.2908ZM331.277 32.5216C332.237 32.5216 333.095 32.3554 333.852 32.0231C334.628 31.6723 335.237 31.1739 335.68 30.5277C336.123 29.8631 336.345 29.06 336.345 28.1185C336.345 27.177 336.123 26.3739 335.68 25.7093C335.237 25.0262 334.637 24.5093 333.88 24.1585C333.123 23.8077 332.255 23.6323 331.277 23.6323C330.317 23.6323 329.449 23.8077 328.674 24.1585C327.898 24.5093 327.28 25.017 326.818 25.6816C326.375 26.3462 326.154 27.1585 326.154 28.1185C326.154 29.06 326.375 29.8631 326.818 30.5277C327.262 31.1739 327.871 31.6723 328.646 32.0231C329.422 32.3554 330.298 32.5216 331.277 32.5216Z" fill="white"/>
<path fill-rule="evenodd" clip-rule="evenodd" d="M442.818 38.0375V38.0368H442.819V35.0282H442.818V26.0006H442.819C442.819 19.3532 437.43 13.9644 430.783 13.9644C424.135 13.9644 418.747 19.3532 418.747 26.0006C418.747 32.648 424.135 38.0368 430.782 38.0368L442.818 38.0375ZM430.783 35.0277C425.797 35.0277 421.756 30.9861 421.756 26.0006C421.756 21.015 425.797 16.9734 430.783 16.9734C435.768 16.9734 439.81 21.015 439.81 26.0006V35.0282L430.783 35.0277Z" fill="white"/>
<path fill-rule="evenodd" clip-rule="evenodd" d="M480.631 38.0375H483.64V33.6241C483.639 33.5343 483.637 33.4448 483.634 33.3555C483.525 30.3547 481.951 27.7276 479.605 26.1681C482.037 24.5508 483.64 21.7853 483.64 18.6457V13.9637H480.631V18.5917C480.631 18.6097 480.631 18.6277 480.631 18.6457C480.631 21.9495 477.968 24.6316 474.672 24.6633C474.652 24.6636 474.633 24.6636 474.613 24.6636C474.593 24.6636 474.574 24.6636 474.554 24.6633C472.731 24.675 471.035 25.2272 469.621 26.1681C469.26 26.4079 468.917 26.6732 468.596 26.9614V18.6997C468.595 18.6817 468.595 18.6637 468.595 18.6457C468.595 18.6277 468.595 18.6097 468.596 18.5917V7.9463H465.586V38.0375H468.596V33.7443C468.595 33.7263 468.595 33.7083 468.595 33.6903C468.595 33.6722 468.595 33.6542 468.596 33.6362C468.624 30.3573 471.276 27.7041 474.554 27.6726C474.574 27.6724 474.593 27.6724 474.613 27.6724C474.633 27.6724 474.652 27.6724 474.672 27.6726C477.951 27.7041 480.602 30.3573 480.631 33.6362C480.631 33.6542 480.631 33.6722 480.631 33.6903C480.631 33.7083 480.631 33.7263 480.631 33.7443V38.0375Z" fill="white"/>
<path fill-rule="evenodd" clip-rule="evenodd" d="M445.455 20.7359C445.455 22.1276 445.875 23.4213 446.595 24.497C447.503 25.8532 448.888 26.8632 450.51 27.2869C451.04 27.4255 451.596 27.5013 452.168 27.506L452.226 27.5063V27.506H455.944C455.958 27.5058 455.972 27.5058 455.987 27.5058C456.001 27.5058 456.015 27.5058 456.029 27.506C458.087 27.529 459.748 29.2041 459.748 31.2671C459.748 33.3443 458.064 35.0284 455.987 35.0284V35.0289H446.83V38.0375H455.987C459.726 38.0375 462.757 35.0061 462.757 31.2671C462.757 29.8754 462.337 28.5817 461.617 27.506C460.709 26.1498 459.325 25.1398 457.703 24.7161C457.173 24.5775 456.617 24.5017 456.044 24.497L455.987 24.4967V24.497H452.268C452.254 24.4972 452.24 24.4972 452.226 24.4972C452.211 24.4972 452.197 24.4972 452.183 24.497C450.125 24.474 448.464 22.7989 448.464 20.7359C448.464 18.6587 450.148 16.9746 452.226 16.9746H461.574V13.966H452.226V13.9655C448.487 13.9655 445.455 16.9969 445.455 20.7359Z" fill="white"/>
<path fill-rule="evenodd" clip-rule="evenodd" d="M415.384 16.0804L417.646 14.0966C417.126 13.5047 416.569 12.9465 415.977 12.4262L413.993 14.6884C414.486 15.122 414.951 15.5871 415.384 16.0804ZM408.065 34.0975C407.366 34.4432 406.617 34.7007 405.834 34.8559C405.077 35.0059 404.288 35.0606 403.482 35.0078C402.675 34.9547 401.901 34.7977 401.17 34.5503C400.414 34.2942 399.705 33.9411 399.057 33.5071C398.399 33.0669 397.804 32.543 397.285 31.9521C396.767 31.3612 396.326 30.7027 395.975 29.9934C395.629 29.2939 395.372 28.5448 395.216 27.7617C395.066 27.0047 395.012 26.2162 395.065 25.4099V25.4097C395.118 24.6034 395.275 23.8286 395.522 23.0979C395.778 22.3419 396.131 21.6327 396.565 20.9842C397.005 20.3267 397.529 19.7316 398.12 19.2132C398.711 18.695 399.37 18.2533 400.079 17.9024C400.778 17.557 401.528 17.2994 402.311 17.1443C403.068 16.994 403.856 16.9395 404.663 16.9924C405.469 17.0452 406.244 17.2023 406.975 17.4499C407.731 17.706 408.44 18.059 409.088 18.4931C409.416 18.7127 409.729 18.9535 410.024 19.2129C410.321 19.4731 410.6 19.7522 410.859 20.0481C411.119 20.3443 411.359 20.6573 411.579 20.9849C411.797 21.3117 411.995 21.6528 412.17 22.0071C412.344 22.3589 412.495 22.7233 412.623 23.0981L415.472 22.1307C415.303 21.6308 415.1 21.1451 414.868 20.676C414.635 20.204 414.372 19.7489 414.08 19.3134C413.788 18.8762 413.467 18.459 413.121 18.0645C412.775 17.6698 412.403 17.2975 412.008 16.9507C411.614 16.605 411.198 16.2839 410.76 15.9911C409.896 15.4123 408.95 14.9417 407.942 14.6003C406.968 14.2703 405.935 14.0606 404.86 13.9902C403.784 13.9196 402.733 13.9928 401.724 14.1928C400.68 14.3996 399.681 14.7429 398.748 15.2038C397.802 15.6712 396.925 16.26 396.137 16.9514C395.348 17.6423 394.65 18.4355 394.063 19.3124C393.484 20.1768 393.014 21.1224 392.672 22.1307C392.343 23.1048 392.133 24.1373 392.062 25.2128V25.2132C391.992 26.2882 392.065 27.3397 392.265 28.3488C392.472 29.393 392.815 30.3916 393.276 31.3245C393.744 32.2701 394.332 33.1479 395.024 33.9359C395.715 34.724 396.508 35.4222 397.385 36.0093C398.249 36.5879 399.194 37.0585 400.203 37.3999C401.177 37.7297 402.21 37.9394 403.285 38.01C404.36 38.0806 405.412 38.0074 406.421 37.8074C407.465 37.6003 408.464 37.2573 409.396 36.7964C409.868 36.563 410.324 36.2993 410.759 36.0079C411.196 35.7158 411.613 35.3952 412.008 35.049C412.403 34.7031 412.774 34.3314 413.121 33.9364C413.467 33.5426 413.788 33.1256 414.081 32.688C414.372 32.2535 414.636 31.7986 414.869 31.3252C415.1 30.857 415.302 30.371 415.472 29.8699L412.622 28.9028C412.495 29.2785 412.344 29.6429 412.17 29.9941C411.995 30.3488 411.797 30.6904 411.579 31.0162C411.359 31.3446 411.119 31.6571 410.859 31.9526C410.599 32.2487 410.32 32.5274 410.024 32.787C409.728 33.0467 409.415 33.287 409.088 33.5061C408.761 33.7248 408.42 33.9224 408.065 34.0975ZM410.844 45.9498C411.719 45.6527 412.569 45.2992 413.389 44.8934L410.727 39.4953C410.141 39.7851 409.534 40.0377 408.91 40.25L410.844 45.9498ZM402.498 50.0201C403.561 50.0898 404.612 50.0893 405.647 50.0227L405.056 41.0143C404.41 41.056 403.753 41.056 403.088 41.0124L402.498 50.0201ZM388.237 39.8877C388.843 40.5781 389.493 41.2294 390.185 41.8365L394.153 37.312C393.659 36.8782 393.194 36.4131 392.761 35.9198L388.237 39.8877ZM385.177 16.6822C384.773 17.5013 384.42 18.3512 384.123 19.2281L389.822 21.1631C390.035 20.5367 390.287 19.9294 390.576 19.3446L385.177 16.6822ZM397.3 6.0501C396.426 6.34769 395.576 6.70096 394.755 7.10659L397.417 12.5046C398.003 12.2149 398.61 11.9623 399.235 11.75L397.3 6.0501ZM405.647 1.98007C404.584 1.91041 403.533 1.91088 402.498 1.97746L403.088 10.9859C403.735 10.9442 404.392 10.944 405.056 10.9875L405.647 1.98007ZM413.391 7.10469C412.571 6.70048 411.722 6.34769 410.844 6.05034L408.909 11.7505C409.536 11.9628 410.143 12.2146 410.728 12.5037L413.391 7.10469ZM413.992 37.3115L415.976 39.5735C416.568 39.0544 417.126 38.4969 417.646 37.9043L415.384 35.9205C414.95 36.414 414.485 36.8789 413.992 37.3115ZM397.417 39.4967L396.086 42.1961C396.787 42.5428 397.516 42.8451 398.268 43.0998L399.235 40.25C398.609 40.0377 398.001 39.7856 397.417 39.4967ZM389.822 30.8378L386.972 31.8054C387.227 32.5548 387.53 33.2832 387.878 33.9864L390.577 32.6553C390.287 32.0694 390.035 31.4623 389.822 30.8378ZM380.052 24.4257C379.983 25.4886 379.983 26.5398 380.05 27.5752C383.053 27.3783 386.056 27.1817 389.058 26.9848C389.017 26.3377 389.016 25.6805 389.06 25.0163C386.057 24.8195 383.055 24.6226 380.052 24.4257ZM394.153 14.6889L392.169 12.4269C391.577 12.946 391.018 13.5038 390.498 14.0961L392.761 16.0802C393.194 15.5864 393.659 15.1218 394.153 14.6889Z" fill="white"/>
<path d="M491.904 18.2171C492.738 18.2171 493.346 17.7087 493.551 17.1945L493.136 17.0121C492.926 17.493 492.49 17.8025 491.904 17.8025C490.992 17.8025 490.345 17.117 490.345 16.0944C490.345 15.0718 490.992 14.3809 491.904 14.3809C492.49 14.3809 492.926 14.6961 493.136 15.1768L493.551 14.9946C493.346 14.4804 492.738 13.9663 491.904 13.9663C490.743 13.9663 489.903 14.8619 489.903 16.0944C489.903 17.3272 490.743 18.2171 491.904 18.2171ZM493.916 18.1508H494.38L494.74 17.1448H496.58L496.934 18.1508H497.398L495.895 14.0326H495.419L493.916 18.1508ZM494.883 16.7301L495.657 14.5522L496.425 16.7301H494.883ZM497.945 18.1508H498.388V16.5477H499.361C500.173 16.5477 500.709 16.0447 500.709 15.2929C500.709 14.5413 500.168 14.0326 499.361 14.0326H497.945V18.1508ZM498.388 16.1333V14.4473H499.383C499.913 14.4473 500.267 14.7678 500.267 15.2874C500.267 15.8125 499.913 16.1333 499.383 16.1333H498.388ZM502.213 18.1508H502.655V14.4473H503.783V14.0326H501.074V14.4473H502.213V18.1508ZM505.778 18.2171C506.657 18.2171 507.243 17.6257 507.243 16.8076V14.0326H506.801V16.8076C506.801 17.4044 506.386 17.8025 505.778 17.8025C505.17 17.8025 504.755 17.4044 504.755 16.8076V14.0326H504.313V16.8076C504.313 17.6257 504.899 18.2171 505.778 18.2171ZM508.199 18.1508H508.641V16.5477H509.648L510.554 18.1508H511.074L510.112 16.4759C510.637 16.31 510.963 15.8788 510.963 15.2929C510.963 14.5413 510.421 14.0326 509.614 14.0326H508.199V18.1508ZM508.641 16.1333V14.4473H509.636C510.167 14.4473 510.521 14.7678 510.521 15.2874C510.521 15.8125 510.167 16.1333 509.636 16.1333H508.641ZM511.743 18.1508H514.396V17.7361H512.185V16.2935H514.285V15.8788H512.185V14.4473H514.396V14.0326H511.743V18.1508ZM489.599 24.7574H490.063L490.422 23.7514H492.263L492.617 24.7574H493.081L491.578 20.6393H491.102L489.599 24.7574ZM490.566 23.3368L491.34 21.1589L492.108 23.3368H490.566ZM493.628 24.7574H494.07V21.4851L496.337 24.7574H496.724V20.6393H496.281V23.8895L494.015 20.6393H493.628V24.7574ZM497.697 24.7574H499.051C500.273 24.7574 501.068 23.9447 501.068 22.6956C501.068 21.4408 500.273 20.6393 499.051 20.6393H497.697V24.7574ZM498.139 24.3428V21.0539H499.051C499.991 21.0539 500.604 21.6896 500.604 22.6956C500.604 23.7071 499.996 24.3428 499.051 24.3428H498.139ZM491.412 31.4304C492.197 31.4304 492.744 30.9717 492.744 30.3083C492.744 29.761 492.407 29.4072 491.76 29.2139L491.108 29.0203C490.665 28.8876 490.456 28.6002 490.456 28.2631C490.456 27.843 490.776 27.5776 491.251 27.5776C491.754 27.5776 492.141 27.8319 492.318 28.3183L492.705 28.1636C492.528 27.6274 491.981 27.1796 491.246 27.1796C490.533 27.1796 490.013 27.644 490.013 28.2962C490.013 28.8047 490.339 29.2305 490.92 29.4018L491.661 29.6228C492.069 29.7444 492.302 29.9434 492.302 30.3469C492.302 30.7615 491.943 31.0323 491.412 31.0323C490.848 31.0323 490.428 30.7338 490.24 30.1756L489.842 30.3249C490.03 30.9328 490.621 31.4304 491.412 31.4304ZM493.595 31.3641H494.037V29.5122H496.248V31.3641H496.691V27.2459H496.248V29.0978H494.037V27.2459H493.595V31.3641ZM497.238 31.3641H497.702L498.062 30.358H499.902L500.256 31.3641H500.72L499.217 27.2459H498.741L497.238 31.3641ZM498.205 29.9434L498.979 27.7655L499.747 29.9434H498.205ZM501.267 31.3641H501.71V29.761H502.716L503.622 31.3641H504.142L503.18 29.6892C503.705 29.5233 504.031 29.0921 504.031 28.5062C504.031 27.7546 503.49 27.2459 502.683 27.2459H501.267V31.3641ZM501.71 29.3466V27.6605H502.705C503.235 27.6605 503.589 27.9811 503.589 28.5007C503.589 29.0258 503.235 29.3466 502.705 29.3466H501.71ZM504.811 31.3641H507.464V30.9494H505.253V29.5067H507.354V29.0921H505.253V27.6605H507.464V27.2459H504.811V31.3641ZM490.024 37.9707H490.466V36.727L491.158 35.9421L492.562 37.9707H493.092L491.462 35.5938L492.993 33.8526H492.44L490.466 36.0968V33.8526H490.024V37.9707ZM493.639 37.9707H494.082V34.6984L496.348 37.9707H496.735V33.8526H496.293V37.1028L494.026 33.8526H493.639V37.9707ZM499.648 38.037C500.792 38.037 501.71 37.1471 501.71 35.9089C501.71 34.6761 500.792 33.7862 499.648 33.7862C498.504 33.7862 497.586 34.6707 497.586 35.9089C497.586 37.1526 498.504 38.037 499.648 38.037ZM499.648 37.6224C498.697 37.6224 498.028 36.854 498.028 35.9089C498.028 34.9747 498.692 34.2008 499.648 34.2008C500.604 34.2008 501.268 34.9747 501.268 35.9089C501.268 36.854 500.599 37.6224 499.648 37.6224ZM503.208 37.9707H503.678L504.684 34.4439L505.69 37.9707H506.159L507.342 33.8526H506.895L505.916 37.3627L504.921 33.8526H504.452L503.451 37.3736L502.473 33.8526H502.025L503.208 37.9707ZM507.89 37.9707H510.156V37.5561H508.332V33.8526H507.89V37.9707ZM510.825 37.9707H513.478V37.5561H511.267V36.1134H513.368V35.6987H511.267V34.2672H513.478V33.8526H510.825V37.9707ZM514.208 37.9707H515.562C516.784 37.9707 517.58 37.158 517.58 35.9089C517.58 34.6541 516.784 33.8526 515.562 33.8526H514.208V37.9707ZM514.65 37.5561V34.2672H515.562C516.502 34.2672 517.115 34.9029 517.115 35.9089C517.115 36.9204 516.507 37.5561 515.562 37.5561H514.65ZM520.189 38.037C521.234 38.037 522.057 37.2632 522.057 36.1852V35.8426H520.189V36.2295H521.615V36.2572C521.615 37.053 520.996 37.6224 520.189 37.6224C519.277 37.6224 518.63 36.9369 518.63 35.9143C518.63 34.8917 519.277 34.2008 520.189 34.2008C520.791 34.2008 521.234 34.5048 521.438 35.0078L521.836 34.8145C521.631 34.3004 521.023 33.7862 520.189 33.7862C519.028 33.7862 518.188 34.6818 518.188 35.9143C518.188 37.1471 519.028 38.037 520.189 38.037ZM522.848 37.9707H525.501V37.5561H523.29V36.1134H525.39V35.6987H523.29V34.2672H525.501V33.8526H522.848V37.9707Z" fill="white"/>
<path d="M622.43 17.4368C617.586 17.4368 613.646 21.3769 613.646 26.2156C613.646 31.0599 617.586 35.0001 622.43 35.0001C625.189 35.0001 627.653 33.7222 629.266 31.7274L626.632 29.9446C625.601 31.1046 624.099 31.8368 622.43 31.8368C619.33 31.8368 616.81 29.3171 616.81 26.2165C616.81 23.1207 619.33 20.601 622.43 20.601C625.526 20.601 628.051 23.1207 628.051 26.2165C628.051 26.8811 627.935 27.5182 627.722 28.1096L630.578 29.4968C630.988 28.4823 631.214 27.3756 631.214 26.2165C631.214 21.3779 627.274 17.4377 622.429 17.4377L622.43 17.4368ZM621.029 28.6458C619.689 27.8719 619.229 26.1547 620.002 24.8141C620.774 23.4763 622.492 23.0161 623.832 23.7891C625.17 24.5621 625.632 26.2802 624.86 27.618C624.086 28.9587 622.366 29.417 621.028 28.6449L621.029 28.6458ZM646.002 17.3626C641.866 17.3626 638.507 20.7275 638.507 24.8578V27.4088C638.507 29.802 636.563 31.7455 634.17 31.7455H631.609V34.9098H634.17C638.306 34.9098 641.665 31.5449 641.665 27.4088V24.8578C641.665 22.4703 643.614 20.5259 646.002 20.5259H647.401V17.3616H646.002V17.3626ZM663.639 30.9753H659.45L659.403 31.0172C658.805 31.5296 658.045 31.8092 657.263 31.8092C654.189 31.8092 651.685 29.3057 651.685 26.2308C651.685 23.1673 654.178 20.6733 657.242 20.6733C660.306 20.6733 662.8 23.1663 662.8 26.2308V29.5482H665.964V26.2308C665.964 21.4187 662.05 17.51 657.243 17.51C652.436 17.51 648.522 21.4187 648.522 26.2308C648.522 31.0485 652.442 34.9735 657.265 34.9735C658.807 34.9735 660.297 34.4192 661.465 33.4151L661.539 33.3514L662.379 34.2337H666.763L663.641 30.9744L663.639 30.9753ZM676.723 20.5801H684.879V17.4263H676.723C671.884 17.4263 667.948 21.3512 667.948 26.1794C667.948 31.0019 671.884 34.9326 676.723 34.9326H684.879V31.774H676.723C673.627 31.774 671.113 29.2648 671.113 26.1804C671.113 23.096 673.627 20.5811 676.723 20.5811V20.5801ZM697.049 17.4158H691.133V12.8463H687.969V20.5792H697.049C699.965 20.5792 702.342 22.9505 702.342 25.8723V34.9316H705.506V25.8723C705.506 21.2077 701.714 17.4149 697.049 17.4149V17.4158ZM691.133 34.9316V29.4911H687.969V34.9316H691.133ZM691.133 29.4911V22.8668H687.969V29.4911H691.133ZM691.133 22.8668V21.9369H687.969V22.8668H691.133ZM574.275 20.5801H582.431V17.4263H574.275C569.436 17.4263 565.501 21.3512 565.501 26.1794C565.501 31.0019 569.436 34.9326 574.275 34.9326H582.431V31.774H574.275C571.179 31.774 568.665 29.2648 568.665 26.1804C568.665 23.096 571.179 20.5811 574.275 20.5811V20.5801ZM592.986 17.4368C588.141 17.4368 584.201 21.3769 584.201 26.2156C584.201 31.0599 588.141 35.0001 592.986 35.0001C597.83 35.0001 601.77 31.0599 601.77 26.2156C601.77 21.3769 597.83 17.4368 592.986 17.4368ZM592.986 31.8368C589.885 31.8368 587.366 29.3171 587.366 26.2165C587.366 23.1207 589.885 20.601 592.986 20.601C596.082 20.601 598.606 23.1207 598.606 26.2165C598.606 29.3171 596.081 31.8368 592.986 31.8368ZM607.65 26.169V12.8472H604.486V26.169C604.486 31.0019 608.421 34.9373 613.254 34.9373V31.7731C610.164 31.7731 607.649 29.2591 607.649 26.168L607.65 26.169Z" fill="white"/>
</g>

</svg>
