<svg width="33" height="32" viewBox="0 0 33 32" fill="none" xmlns="http://www.w3.org/2000/svg">
<rect x="0.5" width="32" height="32" rx="5.33333" fill="black"/>
<g clip-path="url(#clip0_1516_5890)">
<path d="M8.57077 10.3926V9.4611H10.589V3.7065L8.56042 5.22795V4.11015L10.2785 2.8371H11.6137V9.4611H13.2697V10.3926H8.57077Z" fill="white"/>
<path d="M16.2361 10.4961C14.8388 10.4961 13.928 9.6267 13.928 8.3226H14.9527C14.9527 9.11955 15.4391 9.59565 16.2464 9.59565C17.0641 9.59565 17.5402 9.09885 17.5402 8.3226V7.79475C17.5402 6.98745 17.0641 6.51135 16.2464 6.51135H15.4081V5.6523L17.1676 3.7479H14.2489V2.8371H18.3164V3.75825L16.5673 5.6316C17.7989 5.74545 18.5648 6.5631 18.5648 7.79475V8.3226C18.5648 9.6267 17.6333 10.4961 16.2361 10.4961Z" fill="white"/>
<path d="M20.7136 10.3926L23.4253 3.75825H20.6308V4.97955H19.6061V2.8371H24.4913V3.77895L21.8417 10.3926H20.7136Z" fill="white"/>
<path d="M10.9202 13.0295C10.4441 13.0295 10.1543 12.7707 10.1543 12.3567C10.1543 11.922 10.4441 11.6633 10.9202 11.6633C11.386 11.6633 11.6861 11.922 11.6861 12.3567C11.6861 12.7707 11.386 13.0295 10.9202 13.0295Z" fill="white"/>
<path d="M8.50867 19.7259V18.7944H10.5062V14.9649H8.71567V14.0334H11.5309V18.7944H13.4042V19.7259H8.50867Z" fill="white"/>
<path d="M16.2361 19.8294C14.8388 19.8294 13.928 18.96 13.928 17.6559H14.9527C14.9527 18.4529 15.4391 18.929 16.2464 18.929C17.0641 18.929 17.5402 18.4322 17.5402 17.6559V17.1281C17.5402 16.3208 17.0641 15.8447 16.2464 15.8447H15.4081V14.9856L17.1676 13.0812H14.2489V12.1704H18.3164V13.0916L16.5673 14.9649C17.7989 15.0788 18.5648 15.8964 18.5648 17.1281V17.6559C18.5648 18.96 17.6333 19.8294 16.2361 19.8294Z" fill="white"/>
<path fill-rule="evenodd" clip-rule="evenodd" d="M21.9245 19.8294C20.4445 19.8294 19.4716 19.0118 19.4716 17.8215C19.4716 16.9625 20.0512 16.1966 20.9516 15.7826C20.0822 15.3582 19.6372 14.7269 19.6372 14.0024C19.6372 12.8742 20.5894 12.0566 21.9245 12.0566C23.2597 12.0566 24.2119 12.8742 24.2119 14.0024C24.2119 14.7165 23.7668 15.3479 22.8974 15.7826C23.8082 16.2069 24.3775 16.9728 24.3775 17.8215C24.3775 19.0118 23.4046 19.8294 21.9245 19.8294ZM21.6347 15.2858L21.9245 15.3996L22.1729 15.2961C22.7836 15.0581 23.2079 14.582 23.2079 14.0541C23.2079 13.4021 22.6904 12.957 21.9245 12.957C21.1586 12.957 20.6411 13.4124 20.6411 14.0541C20.6411 14.6027 21.0448 15.0684 21.6347 15.2858ZM21.9245 18.929C22.7939 18.929 23.3735 18.4322 23.3735 17.6973C23.3735 17.1074 22.9802 16.6106 22.3489 16.3518L21.9245 16.1862L21.4795 16.3622C20.8481 16.6106 20.4755 17.1281 20.4755 17.687C20.4755 18.4322 21.0551 18.929 21.9245 18.929Z" fill="white"/>
<path d="M8.57077 28.1278V29.0593H13.2697V28.1278H11.6137V21.5038H10.2785L8.56042 22.7768V23.8946L10.589 22.3732V28.1278H8.57077Z" fill="white"/>
<path d="M13.928 26.9893C13.928 28.2934 14.8388 29.1628 16.2361 29.1628C17.6333 29.1628 18.5648 28.2934 18.5648 26.9893V26.4614C18.5648 25.2298 17.7989 24.4121 16.5673 24.2983L18.3164 22.4249V21.5038H14.2489V22.4146H17.1676L15.4081 24.319V25.178H16.2464C17.0641 25.178 17.5402 25.6541 17.5402 26.4614V26.9893C17.5402 27.7655 17.0641 28.2623 16.2464 28.2623C15.4391 28.2623 14.9527 27.7862 14.9527 26.9893H13.928Z" fill="white"/>
<path fill-rule="evenodd" clip-rule="evenodd" d="M22.8767 25.561L20.8378 29.0593H21.9763L23.6944 25.9646C24.1291 25.1987 24.3982 24.4949 24.3982 23.8325C24.3982 22.3835 23.3942 21.4003 21.9142 21.4003C20.4445 21.4003 19.4509 22.3939 19.4509 23.8532C19.4509 25.2298 20.2892 26.1509 21.5209 26.1509C22.1108 26.1509 22.5766 25.9129 22.8353 25.5299L22.8767 25.561ZM23.3735 23.8325C23.3735 24.7537 22.7939 25.3747 21.9245 25.3747C21.0551 25.3747 20.4755 24.7537 20.4755 23.8325C20.4755 22.9114 21.0551 22.3007 21.9245 22.3007C22.7939 22.3007 23.3735 22.9114 23.3735 23.8325Z" fill="white"/>
</g>
<defs>
<clipPath id="clip0_1516_5890">
<rect width="16" height="16" fill="white" transform="translate(8.5 8)"/>
</clipPath>
</defs>
</svg>
