<svg width="146" height="50" viewBox="0 0 146 50" fill="none" xmlns="http://www.w3.org/2000/svg">
<path fill-rule="evenodd" clip-rule="evenodd" d="M62.8184 37.0375V37.0368H62.8191V34.0282H62.8184V25.0006H62.8189C62.8189 18.3532 57.4301 12.9644 50.7827 12.9644C44.1353 12.9644 38.7465 18.3532 38.7465 25.0006C38.7465 31.648 44.1353 37.0368 50.7822 37.0368L62.8184 37.0375ZM50.7827 34.0277C45.7972 34.0277 41.7556 29.9861 41.7556 25.0006C41.7556 20.015 45.7972 15.9734 50.7827 15.9734C55.7682 15.9734 59.8098 20.015 59.8098 25.0006V34.0282L50.7827 34.0277Z" fill="white"/>
<path fill-rule="evenodd" clip-rule="evenodd" d="M100.631 37.0375H103.64V32.6241C103.639 32.5343 103.637 32.4448 103.634 32.3555C103.525 29.3547 101.951 26.7276 99.6053 25.1681C102.037 23.5508 103.64 20.7853 103.64 17.6457V12.9637H100.631V17.5917C100.631 17.6097 100.631 17.6277 100.631 17.6457C100.631 20.9495 97.9684 23.6316 94.6721 23.6633C94.6525 23.6636 94.6328 23.6636 94.6131 23.6636C94.5935 23.6636 94.5738 23.6636 94.5541 23.6633C92.7307 23.675 91.0355 24.2272 89.621 25.1681C89.2601 25.4079 88.9173 25.6732 88.5955 25.9614V17.6997C88.5953 17.6817 88.5953 17.6637 88.5953 17.6457C88.5953 17.6277 88.5953 17.6097 88.5955 17.5917V6.9463H85.5865V37.0375H88.5955V32.7443C88.5953 32.7263 88.5953 32.7083 88.5953 32.6903C88.5953 32.6722 88.5953 32.6542 88.5955 32.6362C88.6244 29.3573 91.2757 26.7041 94.5541 26.6726C94.5738 26.6724 94.5935 26.6724 94.6131 26.6724C94.6328 26.6724 94.6525 26.6724 94.6721 26.6726C97.9506 26.7041 100.602 29.3573 100.631 32.6362C100.631 32.6542 100.631 32.6722 100.631 32.6903C100.631 32.7083 100.631 32.7263 100.631 32.7443V37.0375Z" fill="white"/>
<path fill-rule="evenodd" clip-rule="evenodd" d="M65.4553 19.7359C65.4553 21.1276 65.8751 22.4213 66.5952 23.497C67.5031 24.8532 68.8877 25.8632 70.5095 26.2869C71.0398 26.4255 71.5956 26.5013 72.1683 26.506L72.2256 26.5063V26.506H75.9441C75.9583 26.5058 75.9725 26.5058 75.9867 26.5058C76.0009 26.5058 76.0151 26.5058 76.0294 26.506C78.0869 26.529 79.748 28.2041 79.748 30.2671C79.748 32.3443 78.0639 34.0284 75.9867 34.0284V34.0289H66.83V37.0375H75.9867C79.7258 37.0375 82.7571 34.0061 82.7571 30.2671C82.7571 28.8754 82.3372 27.5817 81.6172 26.506C80.7093 25.1498 79.3246 24.1398 77.7028 23.7161C77.1726 23.5775 76.6167 23.5017 76.0441 23.497L75.9867 23.4967V23.497H72.2683C72.2541 23.4972 72.2399 23.4972 72.2256 23.4972C72.2114 23.4972 72.1972 23.4972 72.183 23.497C70.1255 23.474 68.4643 21.7989 68.4643 19.7359C68.4643 17.6587 70.1485 15.9746 72.2256 15.9746H81.5743V12.966H72.2256V12.9655C68.4866 12.9655 65.4553 15.9969 65.4553 19.7359Z" fill="white"/>
<path fill-rule="evenodd" clip-rule="evenodd" d="M35.3836 15.0804L37.6458 13.0966C37.1265 12.5047 36.5692 11.9465 35.9766 11.4262L33.9925 13.6884C34.4861 14.122 34.9509 14.5871 35.3836 15.0804ZM28.0654 33.0975C27.366 33.4432 26.6168 33.7007 25.834 33.8559C25.077 34.0059 24.2883 34.0606 23.482 34.0078C22.6755 33.9547 21.9007 33.7977 21.17 33.5503C20.4137 33.2942 19.7048 32.9411 19.0565 32.5071C18.3991 32.0669 17.8036 31.543 17.2855 30.9521C16.7673 30.3612 16.3257 29.7027 15.9748 28.9934C15.6291 28.2939 15.3718 27.5448 15.2163 26.7617C15.0664 26.0047 15.0116 25.2162 15.0647 24.4099V24.4097C15.1175 23.6034 15.2746 22.8286 15.5222 22.0979C15.7783 21.3419 16.1311 20.6327 16.5652 19.9842C17.0054 19.3267 17.5293 18.7316 18.1202 18.2132C18.7113 17.695 19.3695 17.2533 20.0789 16.9024C20.7783 16.557 21.5275 16.2994 22.3106 16.1443C23.0676 15.994 23.8561 15.9395 24.6626 15.9924C25.4691 16.0452 26.2439 16.2023 26.9748 16.4499C27.7311 16.706 28.44 17.059 29.0883 17.4931C29.4164 17.7127 29.7294 17.9535 30.0244 18.2129C30.3208 18.4731 30.5997 18.7522 30.8594 19.0481C31.1188 19.3443 31.3593 19.6573 31.5787 19.9849C31.7971 20.3117 31.9947 20.6528 32.1696 21.0071C32.3437 21.3589 32.4951 21.7233 32.6226 22.0981L35.4724 21.1307C35.3026 20.6308 35.1005 20.1451 34.8685 19.676C34.6354 19.204 34.3716 18.7489 34.0805 18.3134C33.7881 17.8762 33.4673 17.459 33.1211 17.0645C32.7752 16.6698 32.4034 16.2975 32.0082 15.9507C31.6145 15.605 31.1979 15.2839 30.7601 14.9911C29.8957 14.4123 28.9501 13.9417 27.9422 13.6003C26.9677 13.2703 25.9347 13.0606 24.8595 12.9902C23.7843 12.9196 22.7326 12.9928 21.7237 13.1928C20.6795 13.3996 19.6806 13.7429 18.7483 14.2038C17.8022 14.6712 16.9246 15.26 16.1366 15.9514C15.3483 16.6423 14.6501 17.4355 14.0632 18.3124C13.4844 19.1768 13.014 20.1224 12.6724 21.1307C12.3426 22.1048 12.1329 23.1373 12.0623 24.2128V24.2132C11.9917 25.2882 12.0649 26.3397 12.2649 27.3488C12.4719 28.393 12.815 29.3916 13.2761 30.3245C13.7436 31.2701 14.3323 32.1479 15.0237 32.9359C15.7146 33.724 16.5079 34.4222 17.3845 35.0093C18.2491 35.5879 19.1944 36.0585 20.2026 36.3999C21.1771 36.7297 22.2099 36.9394 23.2851 37.01C24.3603 37.0806 25.412 37.0074 26.4209 36.8074C27.4651 36.6003 28.464 36.2573 29.3963 35.7964C29.8685 35.563 30.3236 35.2993 30.7591 35.0079C31.1963 34.7158 31.613 34.3952 32.0075 34.049C32.4025 33.7031 32.7745 33.3314 33.1214 32.9364C33.4673 32.5426 33.7878 32.1256 34.0812 31.688C34.3721 31.2535 34.6356 30.7986 34.8694 30.3252C35.1005 29.857 35.3021 29.371 35.472 28.8699L32.6224 27.9028C32.4949 28.2785 32.3435 28.6429 32.1703 28.9941C31.995 29.3488 31.7974 29.6904 31.5792 30.0162C31.3593 30.3446 31.1186 30.6571 30.8591 30.9526C30.599 31.2487 30.3201 31.5274 30.0242 31.787C29.728 32.0467 29.4152 32.287 29.0876 32.5061C28.7611 32.7248 28.4197 32.9224 28.0654 33.0975ZM30.8442 44.9498C31.7189 44.6527 32.5688 44.2992 33.3893 43.8934L30.7274 38.4953C30.141 38.7851 29.534 39.0377 28.9096 39.25L30.8442 44.9498ZM22.498 49.0201C23.5606 49.0898 24.6117 49.0893 25.6471 49.0227L25.0564 40.0143C24.4096 40.056 23.7528 40.056 23.0882 40.0124L22.498 49.0201ZM8.237 38.8877C8.8426 39.5781 9.49298 40.2294 10.1846 40.8365L14.1525 36.312C13.6585 35.8782 13.1941 35.4131 12.7612 34.9198L8.237 38.8877ZM5.17678 15.6822C4.77257 16.5013 4.41978 17.3512 4.12266 18.2281L9.82232 20.1631C10.0346 19.5367 10.2867 18.9294 10.5755 18.3446L5.17678 15.6822ZM17.3002 5.0501C16.4256 5.34769 15.5758 5.70096 14.755 6.10659L17.4172 11.5046C18.0031 11.2149 18.6102 10.9623 19.235 10.75L17.3002 5.0501ZM25.6466 0.980068C24.5839 0.91041 23.5327 0.910884 22.4978 0.977462L23.0882 9.98589C23.7353 9.94419 24.392 9.94395 25.0564 9.98755L25.6466 0.980068ZM33.3905 6.10469C32.5714 5.70048 31.7215 5.34769 30.8444 5.05034L28.9094 10.7505C29.5361 10.9628 30.1431 11.2146 30.7281 11.5037L33.3905 6.10469ZM33.9918 36.3115L35.9757 38.5735C36.5678 38.0544 37.1258 37.4969 37.6461 36.9043L35.3838 34.9205C34.9502 35.414 34.4851 35.8789 33.9918 36.3115ZM17.4167 38.4967L16.0856 41.1961C16.7874 41.5428 17.516 41.8451 18.2678 42.0998L19.2352 39.25C18.6087 39.0377 18.0015 38.7856 17.4167 38.4967ZM9.82232 29.8378L6.97249 30.8054C7.2272 31.5548 7.53023 32.2832 7.87781 32.9864L10.5772 31.6553C10.2874 31.0694 10.0349 30.4623 9.82232 29.8378ZM0.0523949 23.4257C-0.0172634 24.4886 -0.0167895 25.5398 0.0497886 26.5752C3.05268 26.3783 6.05556 26.1817 9.05821 25.9848C9.01675 25.3377 9.01628 24.6805 9.05987 24.0163C6.05722 23.8195 3.05505 23.6226 0.0523949 23.4257ZM14.1525 13.6889L12.1687 11.4269C11.5766 11.946 11.0184 12.5038 10.4981 13.0961L12.7605 15.0802C13.1941 14.5864 13.6592 14.1218 14.1525 13.6889Z" fill="white"/>
<path d="M111.904 17.2171C112.738 17.2171 113.346 16.7087 113.551 16.1945L113.136 16.0121C112.926 16.493 112.49 16.8025 111.904 16.8025C110.992 16.8025 110.345 16.117 110.345 15.0944C110.345 14.0718 110.992 13.3809 111.904 13.3809C112.49 13.3809 112.926 13.6961 113.136 14.1768L113.551 13.9946C113.346 13.4804 112.738 12.9663 111.904 12.9663C110.743 12.9663 109.903 13.8619 109.903 15.0944C109.903 16.3272 110.743 17.2171 111.904 17.2171ZM113.916 17.1508H114.38L114.74 16.1448H116.58L116.934 17.1508H117.398L115.895 13.0326H115.419L113.916 17.1508ZM114.883 15.7301L115.657 13.5522L116.425 15.7301H114.883ZM117.945 17.1508H118.388V15.5477H119.361C120.173 15.5477 120.709 15.0447 120.709 14.2929C120.709 13.5413 120.168 13.0326 119.361 13.0326H117.945V17.1508ZM118.388 15.1333V13.4473H119.383C119.913 13.4473 120.267 13.7678 120.267 14.2874C120.267 14.8125 119.913 15.1333 119.383 15.1333H118.388ZM122.213 17.1508H122.655V13.4473H123.783V13.0326H121.074V13.4473H122.213V17.1508ZM125.778 17.2171C126.657 17.2171 127.243 16.6257 127.243 15.8076V13.0326H126.801V15.8076C126.801 16.4044 126.386 16.8025 125.778 16.8025C125.17 16.8025 124.755 16.4044 124.755 15.8076V13.0326H124.313V15.8076C124.313 16.6257 124.899 17.2171 125.778 17.2171ZM128.199 17.1508H128.641V15.5477H129.648L130.554 17.1508H131.074L130.112 15.4759C130.637 15.31 130.963 14.8788 130.963 14.2929C130.963 13.5413 130.421 13.0326 129.614 13.0326H128.199V17.1508ZM128.641 15.1333V13.4473H129.636C130.167 13.4473 130.521 13.7678 130.521 14.2874C130.521 14.8125 130.167 15.1333 129.636 15.1333H128.641ZM131.743 17.1508H134.396V16.7361H132.185V15.2935H134.285V14.8788H132.185V13.4473H134.396V13.0326H131.743V17.1508ZM109.599 23.7574H110.063L110.422 22.7514H112.263L112.617 23.7574H113.081L111.578 19.6393H111.102L109.599 23.7574ZM110.566 22.3368L111.34 20.1589L112.108 22.3368H110.566ZM113.628 23.7574H114.07V20.4851L116.337 23.7574H116.724V19.6393H116.281V22.8895L114.015 19.6393H113.628V23.7574ZM117.697 23.7574H119.051C120.273 23.7574 121.068 22.9447 121.068 21.6956C121.068 20.4408 120.273 19.6393 119.051 19.6393H117.697V23.7574ZM118.139 23.3428V20.0539H119.051C119.991 20.0539 120.604 20.6896 120.604 21.6956C120.604 22.7071 119.996 23.3428 119.051 23.3428H118.139ZM111.412 30.4304C112.197 30.4304 112.744 29.9717 112.744 29.3083C112.744 28.761 112.407 28.4072 111.76 28.2139L111.108 28.0203C110.665 27.8876 110.456 27.6002 110.456 27.2631C110.456 26.843 110.776 26.5776 111.251 26.5776C111.754 26.5776 112.141 26.8319 112.318 27.3183L112.705 27.1636C112.528 26.6274 111.981 26.1796 111.246 26.1796C110.533 26.1796 110.013 26.644 110.013 27.2962C110.013 27.8047 110.339 28.2305 110.92 28.4018L111.661 28.6228C112.069 28.7444 112.302 28.9434 112.302 29.3469C112.302 29.7615 111.943 30.0323 111.412 30.0323C110.848 30.0323 110.428 29.7338 110.24 29.1756L109.842 29.3249C110.03 29.9328 110.621 30.4304 111.412 30.4304ZM113.595 30.3641H114.037V28.5122H116.248V30.3641H116.691V26.2459H116.248V28.0978H114.037V26.2459H113.595V30.3641ZM117.238 30.3641H117.702L118.062 29.358H119.902L120.256 30.3641H120.72L119.217 26.2459H118.741L117.238 30.3641ZM118.205 28.9434L118.979 26.7655L119.747 28.9434H118.205ZM121.267 30.3641H121.71V28.761H122.716L123.622 30.3641H124.142L123.18 28.6892C123.705 28.5233 124.031 28.0921 124.031 27.5062C124.031 26.7546 123.49 26.2459 122.683 26.2459H121.267V30.3641ZM121.71 28.3466V26.6605H122.705C123.235 26.6605 123.589 26.9811 123.589 27.5007C123.589 28.0258 123.235 28.3466 122.705 28.3466H121.71ZM124.811 30.3641H127.464V29.9494H125.253V28.5067H127.354V28.0921H125.253V26.6605H127.464V26.2459H124.811V30.3641ZM110.024 36.9707H110.466V35.727L111.158 34.9421L112.562 36.9707H113.092L111.462 34.5938L112.993 32.8526H112.44L110.466 35.0968V32.8526H110.024V36.9707ZM113.639 36.9707H114.082V33.6984L116.348 36.9707H116.735V32.8526H116.293V36.1028L114.026 32.8526H113.639V36.9707ZM119.648 37.037C120.792 37.037 121.71 36.1471 121.71 34.9089C121.71 33.6761 120.792 32.7862 119.648 32.7862C118.504 32.7862 117.586 33.6707 117.586 34.9089C117.586 36.1526 118.504 37.037 119.648 37.037ZM119.648 36.6224C118.697 36.6224 118.028 35.854 118.028 34.9089C118.028 33.9747 118.692 33.2008 119.648 33.2008C120.604 33.2008 121.268 33.9747 121.268 34.9089C121.268 35.854 120.599 36.6224 119.648 36.6224ZM123.208 36.9707H123.678L124.684 33.4439L125.69 36.9707H126.159L127.342 32.8526H126.895L125.916 36.3627L124.921 32.8526H124.452L123.451 36.3736L122.473 32.8526H122.025L123.208 36.9707ZM127.89 36.9707H130.156V36.5561H128.332V32.8526H127.89V36.9707ZM130.825 36.9707H133.478V36.5561H131.267V35.1134H133.368V34.6987H131.267V33.2672H133.478V32.8526H130.825V36.9707ZM134.208 36.9707H135.562C136.784 36.9707 137.58 36.158 137.58 34.9089C137.58 33.6541 136.784 32.8526 135.562 32.8526H134.208V36.9707ZM134.65 36.5561V33.2672H135.562C136.502 33.2672 137.115 33.9029 137.115 34.9089C137.115 35.9204 136.507 36.5561 135.562 36.5561H134.65ZM140.189 37.037C141.234 37.037 142.057 36.2632 142.057 35.1852V34.8426H140.189V35.2295H141.615V35.2572C141.615 36.053 140.996 36.6224 140.189 36.6224C139.277 36.6224 138.63 35.9369 138.63 34.9143C138.63 33.8917 139.277 33.2008 140.189 33.2008C140.791 33.2008 141.234 33.5048 141.438 34.0078L141.836 33.8145C141.631 33.3004 141.023 32.7862 140.189 32.7862C139.028 32.7862 138.188 33.6818 138.188 34.9143C138.188 36.1471 139.028 37.037 140.189 37.037ZM142.848 36.9707H145.501V36.5561H143.29V35.1134H145.39V34.6987H143.29V33.2672H145.501V32.8526H142.848V36.9707Z" fill="white"/>
</svg>
