<svg width="141" height="23" viewBox="0 0 141 23" fill="none" xmlns="http://www.w3.org/2000/svg">
<path d="M57.4304 5.43676C52.586 5.43676 48.6459 9.37691 48.6459 14.2156C48.6459 19.0599 52.586 23.0001 57.4304 23.0001C60.1887 23.0001 62.6532 21.7222 64.2658 19.7274L61.632 17.9446C60.6013 19.1046 59.0991 19.8368 57.4304 19.8368C54.3298 19.8368 51.8102 17.3171 51.8102 14.2165C51.8102 11.1207 54.3298 8.60105 57.4304 8.60105C60.5262 8.60105 63.0506 11.1207 63.0506 14.2165C63.0506 14.8811 62.9346 15.5182 62.7216 16.1096L65.5779 17.4968C65.9877 16.4823 66.214 15.3756 66.214 14.2165C66.214 9.37786 62.2738 5.43771 57.4295 5.43771L57.4304 5.43676ZM56.0289 16.6458C54.6892 15.8719 54.229 14.1547 55.002 12.8141C55.7741 11.4763 57.4922 11.0161 58.8319 11.7891C60.1697 12.5621 60.6318 14.2802 59.8597 15.618C59.0858 16.9587 57.3657 17.417 56.028 16.6449L56.0289 16.6458ZM81.0019 5.36259C76.8659 5.36259 73.5067 8.72751 73.5067 12.8578V15.4088C73.5067 17.802 71.5632 19.7455 69.17 19.7455H66.6086V22.9098H69.17C73.3061 22.9098 76.6653 19.5449 76.6653 15.4088V12.8578C76.6653 10.4703 78.6144 8.52594 81.0019 8.52594H82.4015V5.36164H81.0019V5.36259ZM98.6394 18.9753H94.4501L94.4026 19.0172C93.8055 19.5296 93.0448 19.8092 92.2633 19.8092C89.1893 19.8092 86.6849 17.3057 86.6849 14.2308C86.6849 11.1673 89.1779 8.67331 92.2424 8.67331C95.3059 8.67331 97.7998 11.1663 97.7998 14.2308V17.5482H100.964V14.2308C100.964 9.41875 97.0497 5.50997 92.2433 5.50997C87.436 5.50997 83.5225 9.41875 83.5225 14.2308C83.5225 19.0485 87.4417 22.9735 92.2652 22.9735C93.8074 22.9735 95.2973 22.4192 96.4649 21.4151L96.5391 21.3514L97.3786 22.2337H101.763L98.6413 18.9744L98.6394 18.9753ZM111.723 8.58013H119.879V5.4263H111.723C106.884 5.4263 102.948 9.35124 102.948 14.1794C102.948 19.0019 106.884 22.9326 111.723 22.9326H119.879V19.774H111.723C108.627 19.774 106.113 17.2648 106.113 14.1804C106.113 11.096 108.627 8.58108 111.723 8.58108V8.58013ZM132.049 5.41584H126.133V0.846252H122.969V8.57918H132.049C134.965 8.57918 137.342 10.9505 137.342 13.8723V22.9316H140.506V13.8723C140.506 9.20767 136.714 5.41489 132.049 5.41489V5.41584ZM126.133 22.9316V17.4911H122.969V22.9316H126.133ZM126.133 17.4911V10.8668H122.969V17.4911H126.133ZM126.133 10.8668V9.93694H122.969V10.8668H126.133ZM9.27479 8.58013H17.4308V5.4263H9.27479C4.43613 5.4263 0.500732 9.35124 0.500732 14.1794C0.500732 19.0019 4.43613 22.9326 9.27479 22.9326H17.4308V19.774H9.27479C6.17896 19.774 3.66502 17.2648 3.66502 14.1804C3.66502 11.096 6.17896 8.58108 9.27479 8.58108V8.58013ZM27.9858 5.43676C23.1414 5.43676 19.2012 9.37691 19.2012 14.2156C19.2012 19.0599 23.1414 23.0001 27.9858 23.0001C32.8301 23.0001 36.7703 19.0599 36.7703 14.2156C36.7703 9.37691 32.8301 5.43676 27.9858 5.43676ZM27.9858 19.8368C24.8852 19.8368 22.3655 17.3171 22.3655 14.2165C22.3655 11.1207 24.8852 8.60105 27.9858 8.60105C31.0816 8.60105 33.606 11.1207 33.606 14.2165C33.606 17.3171 31.0806 19.8368 27.9858 19.8368ZM42.6501 14.169V0.847203H39.4858V14.169C39.4858 19.0019 43.4212 22.9373 48.2541 22.9373V19.7731C45.164 19.7731 42.6491 17.2591 42.6491 14.168L42.6501 14.169Z" fill="white"/>
</svg>
