<svg width="222" height="38" viewBox="0 0 222 38" fill="none" xmlns="http://www.w3.org/2000/svg">
<path d="M35.227 12.1117C36.1316 14.2956 36.5972 16.6362 36.5972 19H31.1972C31.1972 17.3453 30.8713 15.7069 30.238 14.1782C29.6048 12.6495 28.6767 11.2605 27.5067 10.0905C26.3367 8.92043 24.9477 7.99233 23.419 7.35912C21.8903 6.72591 20.2518 6.4 18.5972 6.4C16.9425 6.4 15.3041 6.72591 13.7754 7.35912C12.2467 7.99233 10.8576 8.92044 9.68762 10.0905C8.5176 11.2605 7.58949 12.6495 6.95628 14.1782C6.32308 15.7069 5.99717 17.3453 5.99717 19H0.597168C0.597168 16.6362 1.06275 14.2956 1.96734 12.1117C2.87192 9.92784 4.19779 7.94353 5.86924 6.27208C7.5407 4.60062 9.525 3.27475 11.7089 2.37017C13.8927 1.46558 16.2334 1 18.5972 1C20.961 1 23.3016 1.46558 25.4855 2.37017C27.6693 3.27475 29.6536 4.60062 31.3251 6.27208C32.9965 7.94353 34.3224 9.92784 35.227 12.1117Z" fill="url(#paint0_angular_1521_6094)"/>
<path d="M29.5549 33.2804C32.6985 30.8682 34.9583 27.4861 35.9838 23.6587L30.7678 22.2611C30.0499 24.9403 28.4681 27.3077 26.2676 28.9963C24.067 30.6848 21.3709 31.6 18.5972 31.6C15.8235 31.6 13.1273 30.6848 10.9268 28.9963C8.72626 27.3077 7.14439 24.9403 6.4265 22.2611L1.2105 23.6587C2.23605 27.4861 4.49587 30.8682 7.63947 33.2804C10.7831 35.6925 14.6348 37 18.5972 37C22.5596 37 26.4113 35.6925 29.5549 33.2804Z" fill="url(#paint1_angular_1521_6094)"/>
<path d="M18.5972 17.275C17.6031 17.275 16.7972 18.0809 16.7972 19.075C16.7972 20.0691 17.6031 20.875 18.5972 20.875C19.5913 20.875 20.3972 20.0691 20.3972 19.075C20.3972 18.0809 19.5913 17.275 18.5972 17.275Z" fill="white"/>
<path d="M15.2897 17.6512L8.09717 19.075L15.2896 20.4987C15.1014 20.062 14.9971 19.5807 14.9972 19.075C14.9972 18.5693 15.1014 18.0879 15.2897 17.6512Z" fill="white"/>
<path d="M36.5972 19.1875H36.7847V19C36.7847 16.6116 36.3142 14.2466 35.4002 12.0399C34.4862 9.83333 33.1465 7.82836 31.4577 6.13949C29.7688 4.45063 27.7638 3.11095 25.5572 2.19694C23.3506 1.28293 20.9856 0.8125 18.5972 0.8125C16.2087 0.8125 13.8437 1.28293 11.6371 2.19694C9.4305 3.11095 7.42553 4.45063 5.73666 6.1395C4.0478 7.82836 2.70812 9.83334 1.79411 12.0399C0.880101 14.2466 0.409668 16.6116 0.409668 19V19.1875H0.597168H5.99717H6.18467V19C6.18467 17.37 6.50573 15.7559 7.12951 14.2499C7.7533 12.744 8.6676 11.3756 9.8202 10.223C10.9728 9.07043 12.3412 8.15613 13.8471 7.53234C15.3531 6.90856 16.9671 6.5875 18.5972 6.5875C20.2272 6.5875 21.8413 6.90856 23.3472 7.53234C24.8532 8.15613 26.2215 9.07043 27.3741 10.223C28.5267 11.3756 29.441 12.744 30.0648 14.2499C30.6886 15.7559 31.0097 17.37 31.0097 19V19.1875H31.1972H36.5972ZM36.1649 23.7073L36.2135 23.5262L36.0324 23.4776L30.8164 22.08L30.6352 22.0315L30.5867 22.2126C29.8795 24.8519 28.3212 27.1841 26.1534 28.8475C23.9857 30.5109 21.3296 31.4125 18.5972 31.4125C15.8648 31.4125 13.2087 30.5109 11.0409 28.8475C8.87315 27.1841 7.31482 24.8519 6.60761 22.2126L6.55909 22.0315L6.37797 22.08L1.16198 23.4776L0.980865 23.5262L1.02939 23.7073C2.06563 27.5745 4.34898 30.9918 7.52532 33.4291C10.7017 35.8664 14.5935 37.1875 18.5972 37.1875C22.6009 37.1875 26.4927 35.8664 29.669 33.4291C32.8454 30.9918 35.1287 27.5745 36.1649 23.7073ZM15.4618 17.7254L15.6029 17.3981L15.2532 17.4673L8.06076 18.891V19.2589L15.2532 20.6826L15.6029 20.7519L15.4618 20.4245C15.2835 20.0108 15.1846 19.5547 15.1847 19.075C15.1847 18.5953 15.2835 18.1391 15.4618 17.7254ZM18.5972 17.0875C17.4995 17.0875 16.6097 17.9773 16.6097 19.075C16.6097 20.1727 17.4995 21.0625 18.5972 21.0625C19.6949 21.0625 20.5847 20.1727 20.5847 19.075C20.5847 17.9773 19.6949 17.0875 18.5972 17.0875Z" stroke="white" stroke-width="0.375"/>
<path d="M64.1233 20.0385V10.0416H67.8064V20.4262C67.8064 21.6077 67.631 22.6416 67.2802 23.5277C66.9479 24.4139 66.4679 25.1616 65.8402 25.7708C65.2125 26.38 64.4741 26.8785 63.6248 27.2662C62.7941 27.6354 61.8802 27.9031 60.8833 28.0693C59.9048 28.2354 58.871 28.3185 57.7818 28.3185C56.6556 28.3185 55.5848 28.2354 54.5695 28.0693C53.5541 27.9031 52.6218 27.6354 51.7725 27.2662C50.9418 26.8785 50.2218 26.38 49.6125 25.7708C49.0033 25.1616 48.5233 24.4139 48.1725 23.5277C47.8402 22.6416 47.6741 21.6077 47.6741 20.4262V10.0416H51.3571V20.0385C51.3571 21.4416 51.6341 22.5123 52.1879 23.2508C52.7418 23.9708 53.4987 24.4693 54.4587 24.7462C55.4372 25.0047 56.5448 25.1339 57.7818 25.1339C58.9818 25.1339 60.0525 25.0047 60.9941 24.7462C61.9541 24.4693 62.711 23.9708 63.2648 23.2508C63.8372 22.5123 64.1233 21.4416 64.1233 20.0385Z" fill="white"/>
<path d="M71.0425 23.3893H74.3656C74.5686 24.017 74.984 24.5339 75.6117 24.94C76.2579 25.3277 77.0979 25.5216 78.1317 25.5216C78.8333 25.5216 79.3779 25.457 79.7656 25.3277C80.1533 25.1985 80.4209 25.0139 80.5686 24.7739C80.7163 24.5154 80.7902 24.2293 80.7902 23.9154C80.7902 23.5277 80.6702 23.2323 80.4302 23.0293C80.1902 22.8077 79.8209 22.6323 79.3225 22.5031C78.824 22.3739 78.1871 22.2539 77.4117 22.1431C76.6363 22.0139 75.8886 21.857 75.1686 21.6723C74.4486 21.4877 73.8117 21.2477 73.2579 20.9523C72.704 20.6385 72.2609 20.2508 71.9286 19.7893C71.6148 19.3093 71.4579 18.7277 71.4579 18.0447C71.4579 17.38 71.6148 16.7893 71.9286 16.2723C72.2609 15.7554 72.7133 15.3216 73.2856 14.9708C73.8763 14.62 74.5594 14.3523 75.3348 14.1677C76.1286 13.9831 76.9779 13.8908 77.8825 13.8908C79.2486 13.8908 80.384 14.0939 81.2886 14.5C82.1933 14.8877 82.8671 15.4416 83.3102 16.1616C83.7717 16.8631 84.0025 17.6754 84.0025 18.5985H80.8179C80.6702 17.9154 80.3748 17.4262 79.9317 17.1308C79.4886 16.817 78.8056 16.66 77.8825 16.66C76.9779 16.66 76.2948 16.7985 75.8333 17.0754C75.3717 17.3523 75.1409 17.7308 75.1409 18.2108C75.1409 18.5985 75.2794 18.9031 75.5563 19.1247C75.8517 19.3277 76.2763 19.4939 76.8302 19.6231C77.4025 19.7523 78.1133 19.8908 78.9625 20.0385C79.6825 20.1862 80.3656 20.3523 81.0117 20.537C81.6763 20.7216 82.2671 20.9616 82.784 21.257C83.3009 21.5339 83.7071 21.9123 84.0025 22.3923C84.3163 22.8539 84.4733 23.4447 84.4733 24.1647C84.4733 25.0508 84.2148 25.7985 83.6979 26.4077C83.1994 27.017 82.4794 27.4877 81.5379 27.82C80.5963 28.1339 79.4702 28.2908 78.1594 28.2908C76.9963 28.2908 75.9902 28.1708 75.1409 27.9308C74.3102 27.6723 73.6179 27.3493 73.064 26.9616C72.5102 26.5554 72.0763 26.1308 71.7625 25.6877C71.4671 25.2262 71.264 24.7924 71.1533 24.3862C71.0425 23.98 71.0056 23.6477 71.0425 23.3893Z" fill="white"/>
<path d="M99.772 23.3893H103.261C103.113 24.3308 102.717 25.1708 102.07 25.9093C101.443 26.6477 100.584 27.2293 99.495 27.6539C98.4058 28.0785 97.0766 28.2908 95.5073 28.2908C93.7535 28.2908 92.2027 28.0139 90.855 27.46C89.5073 26.8877 88.455 26.0662 87.6981 24.9954C86.9412 23.9247 86.5627 22.6323 86.5627 21.1185C86.5627 19.6047 86.932 18.3123 87.6704 17.2416C88.4089 16.1523 89.4335 15.3216 90.7443 14.7493C92.0735 14.177 93.6243 13.8908 95.3966 13.8908C97.2058 13.8908 98.7104 14.177 99.9104 14.7493C101.11 15.3216 101.997 16.1893 102.569 17.3523C103.16 18.497 103.409 19.9647 103.317 21.7554H90.1904C90.2827 22.457 90.5412 23.0939 90.9658 23.6662C91.4089 24.2385 91.9996 24.6908 92.7381 25.0231C93.495 25.3554 94.3904 25.5216 95.4243 25.5216C96.5689 25.5216 97.5196 25.3277 98.2766 24.94C99.052 24.5339 99.5504 24.017 99.772 23.3893ZM95.2304 16.6323C93.9012 16.6323 92.8212 16.9277 91.9904 17.5185C91.1596 18.0908 90.6243 18.8016 90.3843 19.6508H99.7443C99.652 18.7277 99.2089 17.9985 98.415 17.4631C97.6397 16.9093 96.5781 16.6323 95.2304 16.6323Z" fill="white"/>
<path d="M105.995 14.1954H109.595V27.9585H105.995V14.1954ZM114.885 17.1585C113.851 17.1585 112.955 17.3616 112.198 17.7677C111.442 18.1554 110.832 18.6354 110.371 19.2077C109.909 19.78 109.586 20.3339 109.402 20.8693L109.374 19.3462C109.392 19.1247 109.466 18.8016 109.595 18.377C109.725 17.9339 109.918 17.4631 110.177 16.9647C110.435 16.4477 110.777 15.9585 111.202 15.497C111.626 15.017 112.143 14.6293 112.752 14.3339C113.362 14.0385 114.072 13.8908 114.885 13.8908V17.1585Z" fill="white"/>
<path d="M138.489 21.5062C138.322 22.9462 137.815 24.1739 136.966 25.1893C136.116 26.2047 134.962 26.98 133.504 27.5154C132.046 28.0508 130.31 28.3185 128.298 28.3185C126.618 28.3185 125.076 28.1247 123.673 27.737C122.289 27.3493 121.089 26.7677 120.073 25.9923C119.076 25.217 118.301 24.257 117.747 23.1124C117.193 21.9493 116.916 20.5924 116.916 19.0416C116.916 17.4908 117.193 16.1339 117.747 14.9708C118.301 13.8077 119.076 12.8385 120.073 12.0631C121.089 11.2693 122.289 10.6785 123.673 10.2908C125.076 9.88466 126.618 9.68158 128.298 9.68158C130.31 9.68158 132.046 9.9585 133.504 10.5123C134.981 11.0662 136.144 11.86 136.993 12.8939C137.842 13.9093 138.341 15.1462 138.489 16.6047H134.833C134.593 15.8293 134.187 15.1647 133.615 14.6108C133.061 14.0385 132.341 13.6047 131.455 13.3093C130.569 13.0139 129.516 12.8662 128.298 12.8662C126.784 12.8662 125.455 13.1062 124.31 13.5862C123.166 14.0477 122.279 14.74 121.652 15.6631C121.024 16.5677 120.71 17.6939 120.71 19.0416C120.71 20.3708 121.024 21.4877 121.652 22.3923C122.279 23.297 123.166 23.9893 124.31 24.4693C125.455 24.9308 126.784 25.1616 128.298 25.1616C129.516 25.1616 130.559 25.0139 131.427 24.7185C132.313 24.4231 133.033 23.9985 133.587 23.4447C134.159 22.8908 134.575 22.2447 134.833 21.5062H138.489Z" fill="white"/>
<path d="M148.313 28.2631C146.947 28.2631 145.701 27.9677 144.574 27.377C143.467 26.7677 142.581 25.9277 141.916 24.857C141.27 23.7677 140.947 22.5124 140.947 21.0908C140.947 19.6323 141.279 18.3677 141.944 17.297C142.608 16.2262 143.504 15.3954 144.63 14.8047C145.774 14.1954 147.067 13.8908 148.507 13.8908C150.094 13.8908 151.368 14.2139 152.328 14.86C153.307 15.4877 154.018 16.3462 154.461 17.4354C154.904 18.5247 155.125 19.7431 155.125 21.0908C155.125 21.9031 154.996 22.7339 154.738 23.5831C154.479 24.4139 154.082 25.1893 153.547 25.9093C153.011 26.6108 152.31 27.1831 151.442 27.6262C150.574 28.0508 149.531 28.2631 148.313 28.2631ZM149.476 25.4939C150.565 25.4939 151.507 25.3093 152.301 24.94C153.094 24.5708 153.704 24.0539 154.128 23.3893C154.553 22.7247 154.765 21.9585 154.765 21.0908C154.765 20.1493 154.544 19.3554 154.101 18.7093C153.676 18.0447 153.067 17.5462 152.273 17.2139C151.498 16.8631 150.565 16.6877 149.476 16.6877C147.944 16.6877 146.753 17.0939 145.904 17.9062C145.054 18.7 144.63 19.7616 144.63 21.0908C144.63 21.977 144.833 22.7523 145.239 23.417C145.645 24.0631 146.208 24.5708 146.928 24.94C147.667 25.3093 148.516 25.4939 149.476 25.4939ZM154.765 14.1954H158.365V27.9585H155.014C155.014 27.9585 154.987 27.7831 154.931 27.4324C154.894 27.0631 154.858 26.6016 154.821 26.0477C154.784 25.4939 154.765 24.9493 154.765 24.4139V14.1954Z" fill="white"/>
<path d="M161.623 14.1954H165.223V27.9585H161.623V14.1954ZM171.62 13.8908C172.47 13.8908 173.254 14.0016 173.974 14.2231C174.694 14.4447 175.322 14.7862 175.857 15.2477C176.393 15.7093 176.808 16.3 177.103 17.02C177.399 17.7216 177.546 18.5616 177.546 19.54V27.9585H173.946V20.177C173.946 19.0139 173.66 18.1647 173.088 17.6293C172.534 17.0754 171.62 16.7985 170.346 16.7985C169.386 16.7985 168.519 16.9831 167.743 17.3523C166.968 17.7216 166.34 18.1923 165.86 18.7647C165.38 19.3185 165.103 19.9 165.03 20.5093L165.002 19.097C165.094 18.4508 165.306 17.8231 165.639 17.2139C165.971 16.6047 166.414 16.0508 166.968 15.5523C167.54 15.0354 168.214 14.6293 168.99 14.3339C169.765 14.0385 170.642 13.8908 171.62 13.8908Z" fill="white"/>
<path d="M191.541 10.0416C193.553 10.0416 195.233 10.2816 196.581 10.7616C197.929 11.2416 198.999 11.897 199.793 12.7277C200.606 13.54 201.178 14.4816 201.51 15.5523C201.861 16.6231 202.036 17.7493 202.036 18.9308C202.036 20.1123 201.843 21.2477 201.455 22.337C201.086 23.4262 200.486 24.3954 199.655 25.2447C198.843 26.0754 197.763 26.74 196.415 27.2385C195.086 27.7185 193.461 27.9585 191.541 27.9585H181.295V10.0416H191.541ZM184.978 24.8016H191.458C192.787 24.8016 193.886 24.6447 194.753 24.3308C195.639 23.9985 196.341 23.5554 196.858 23.0016C197.375 22.4477 197.744 21.82 197.966 21.1185C198.187 20.417 198.298 19.6877 198.298 18.9308C198.298 18.1739 198.187 17.4539 197.966 16.7708C197.744 16.0877 197.375 15.4785 196.858 14.9431C196.341 14.4077 195.639 13.9831 194.753 13.6693C193.886 13.3554 192.787 13.1985 191.458 13.1985H184.978V24.8016Z" fill="white"/>
<path d="M213.277 28.2908C211.542 28.2908 210.009 28.0139 208.68 27.46C207.369 26.9062 206.345 26.1031 205.606 25.0508C204.868 23.98 204.498 22.6693 204.498 21.1185C204.498 19.5677 204.868 18.257 205.606 17.1862C206.345 16.097 207.369 15.2754 208.68 14.7216C210.009 14.1677 211.542 13.8908 213.277 13.8908C215.012 13.8908 216.526 14.1677 217.818 14.7216C219.129 15.2754 220.154 16.097 220.892 17.1862C221.631 18.257 222 19.5677 222 21.1185C222 22.6693 221.631 23.98 220.892 25.0508C220.154 26.1031 219.129 26.9062 217.818 27.46C216.526 28.0139 215.012 28.2908 213.277 28.2908ZM213.277 25.5216C214.237 25.5216 215.095 25.3554 215.852 25.0231C216.628 24.6723 217.237 24.1739 217.68 23.5277C218.123 22.8631 218.345 22.06 218.345 21.1185C218.345 20.177 218.123 19.3739 217.68 18.7093C217.237 18.0262 216.637 17.5093 215.88 17.1585C215.123 16.8077 214.255 16.6323 213.277 16.6323C212.317 16.6323 211.449 16.8077 210.674 17.1585C209.898 17.5093 209.28 18.017 208.818 18.6816C208.375 19.3462 208.154 20.1585 208.154 21.1185C208.154 22.06 208.375 22.8631 208.818 23.5277C209.262 24.1739 209.871 24.6723 210.646 25.0231C211.422 25.3554 212.298 25.5216 213.277 25.5216Z" fill="white"/>
<defs>
<radialGradient id="paint0_angular_1521_6094" cx="0" cy="0" r="1" gradientUnits="userSpaceOnUse" gradientTransform="translate(18.5972 19) rotate(180) scale(18)">
<stop stop-color="white" stop-opacity="0"/>
<stop offset="1" stop-color="white"/>
</radialGradient>
<radialGradient id="paint1_angular_1521_6094" cx="0" cy="0" r="1" gradientUnits="userSpaceOnUse" gradientTransform="translate(18.5972 19) rotate(180) scale(18)">
<stop stop-color="white" stop-opacity="0"/>
<stop offset="1" stop-color="white"/>
</radialGradient>
</defs>
</svg>
