<svg width="79" height="35" viewBox="0 0 79 35" fill="none" xmlns="http://www.w3.org/2000/svg">
<path d="M-19.8958 32.1053C-19.8958 33.3941 -20.9406 34.4388 -22.2294 34.4388H-23.6768C-24.1662 34.4388 -24.5629 34.0421 -24.5629 33.5527V32.7041C-24.5629 32.6834 -24.5797 32.6665 -24.6005 32.6665C-24.6138 32.6665 -24.6262 32.6737 -24.633 32.6851C-25.541 34.2087 -27.1718 34.9705 -29.5254 34.9705C-31.9869 34.9705 -33.9758 34.1336 -35.4921 32.4598C-36.9888 30.7662 -37.7371 28.6788 -37.7371 26.1976C-37.7371 23.7558 -36.9888 21.6979 -35.4921 20.0241C-33.9758 18.3305 -32.0164 17.4838 -29.614 17.4838C-29.4513 17.4838 -29.291 17.4884 -29.133 17.4976C-27.3541 17.6015 -24.7992 16.3541 -24.7992 14.5722C-24.7992 13.4722 -23.9074 12.5804 -22.8074 12.5804H-22.3475C-20.9935 12.5804 -19.8958 13.678 -19.8958 15.0321V32.1053ZM-24.5334 26.1681C-24.5334 24.9865 -24.9272 24.0118 -25.7149 23.2438C-26.5026 22.4561 -27.4872 22.0622 -28.6688 22.0622C-29.8503 22.0622 -30.8448 22.4561 -31.6521 23.2438C-32.4398 24.0118 -32.8337 24.9865 -32.8337 26.1681C-32.8337 27.389 -32.4595 28.4032 -31.7112 29.2105C-30.9432 29.9982 -29.9488 30.3921 -28.7278 30.3921C-27.5069 30.3921 -26.5026 29.9982 -25.7149 29.2105C-24.9272 28.4032 -24.5334 27.389 -24.5334 26.1681Z" fill="white"/>
<path d="M0.0202484 26.4339C0.0202484 27.194 -0.645008 27.7336 -1.40507 27.7336H-9.71555C-11.1235 27.7336 -12.2122 29.1248 -11.1158 30.0081C-10.3871 30.5595 -9.53052 30.8352 -8.54591 30.8352C-7.75593 30.8352 -7.04958 30.6063 -6.42686 30.1485C-5.80847 29.6939 -5.11465 29.2992 -4.34716 29.2992C-2.54659 29.2992 -1.37202 31.1695 -2.64342 32.4445C-2.98843 32.7905 -3.36085 33.1107 -3.76067 33.405C-5.15883 34.4487 -6.75391 34.9705 -8.54591 34.9705C-10.9484 34.9705 -12.9964 34.1238 -14.6899 32.4302C-16.3834 30.7367 -17.2302 28.6887 -17.2302 26.2862C-17.2302 23.8838 -16.3933 21.8161 -14.7194 20.0832C-13.0456 18.3502 -11.0173 17.4838 -8.63452 17.4838C-6.15329 17.4838 -4.09544 18.3502 -2.46098 20.0832C-0.806828 21.8161 0.0202484 23.933 0.0202484 26.4339ZM-7.37381 24.4253C-6.09799 24.4253 -5.17419 23.1287 -6.21237 22.3872C-6.9016 21.8752 -7.69914 21.6192 -8.60498 21.6192C-9.51083 21.6192 -10.3084 21.8752 -10.9976 22.3872C-12.0358 23.1287 -11.112 24.4253 -9.83615 24.4253H-7.37381Z" fill="white"/>
<path d="M15.0401 29.4173C15.0401 31.1699 14.3804 32.5385 13.061 33.5232C11.7416 34.5078 10.1761 35.0001 8.3644 35.0001C6.5724 35.0001 5.0561 34.5275 3.81548 33.5822C3.28859 33.1808 2.8576 32.7083 2.52251 32.1648C1.74937 30.9107 2.96912 29.565 4.44236 29.565H5.24723C6.00506 29.565 6.58088 30.2271 7.18286 30.6875C7.51763 30.9435 7.93117 31.0715 8.42348 31.0715C8.83702 31.0715 9.22102 30.9632 9.57548 30.7465C9.94963 30.5102 10.1367 30.1952 10.1367 29.8013C10.1367 29.6438 10.1072 29.4961 10.0481 29.3582C10.0087 29.2204 9.93979 29.0924 9.84132 28.9742C9.74286 28.8561 9.6444 28.7576 9.54594 28.6788C9.46717 28.6001 9.33917 28.5213 9.16194 28.4425C8.98471 28.3441 8.84686 28.2752 8.7484 28.2358C8.66963 28.1964 8.52194 28.1373 8.30532 28.0585C8.1084 27.9798 7.9804 27.9305 7.92132 27.9108C6.97609 27.5958 6.26717 27.3496 5.79455 27.1724C3.19517 26.2272 1.89548 24.7995 1.89548 22.8893C1.89548 21.2548 2.52563 19.9453 3.78594 18.9607C5.06594 17.9761 6.55271 17.4838 8.24625 17.4838C9.95948 17.4838 11.397 17.9268 12.5589 18.813C13.0759 19.2074 13.4936 19.6798 13.8117 20.2302C14.496 21.414 13.3468 22.653 11.9794 22.653C10.7294 22.653 9.43714 21.4124 8.18717 21.4124C7.83271 21.4124 7.50779 21.5108 7.2124 21.7078C6.93671 21.9047 6.79886 22.1705 6.79886 22.5053C6.79886 22.8992 6.99578 23.2339 7.38963 23.5096C7.80317 23.7853 8.31517 24.0019 8.92563 24.1595C9.53609 24.2973 10.1958 24.4942 10.9047 24.7502C11.6333 25.0062 12.3029 25.3016 12.9133 25.6364C13.5238 25.9515 14.0259 26.4339 14.4198 27.0838C14.8333 27.7336 15.0401 28.5115 15.0401 29.4173Z" fill="white"/>
<path d="M31.8482 19.9945C33.5417 21.6487 34.3885 23.7262 34.3885 26.2272C34.3885 28.7281 33.5417 30.8056 31.8482 32.4598C30.1743 34.1139 28.0771 34.941 25.5565 34.941C23.0359 34.941 20.9288 34.1139 19.2352 32.4598C17.5614 30.8056 16.7245 28.7281 16.7245 26.2272C16.7245 23.7262 17.5614 21.6487 19.2352 19.9945C20.9288 18.3404 23.0359 17.5133 25.5565 17.5133C28.0771 17.5133 30.1743 18.3404 31.8482 19.9945ZM28.3626 29.1515C29.1109 28.3244 29.4851 27.3496 29.4851 26.2272C29.4851 25.1047 29.1109 24.1398 28.3626 23.3324C27.6143 22.5053 26.6789 22.0918 25.5565 22.0918C24.434 22.0918 23.4986 22.5053 22.7503 23.3324C22.002 24.1398 21.6279 25.1047 21.6279 26.2272C21.6279 27.3496 22.002 28.3244 22.7503 29.1515C23.4986 29.9588 24.434 30.3625 25.5565 30.3625C26.6789 30.3625 27.6143 29.9588 28.3626 29.1515Z" fill="white"/>
<path d="M41.7805 31.9872C41.7805 33.3412 40.6828 34.4388 39.3288 34.4388C37.9748 34.4388 36.8771 33.3412 36.8771 31.9872V15.0321C36.8771 13.678 37.9748 12.5804 39.3288 12.5804C40.6828 12.5804 41.7805 13.678 41.7805 15.0321V31.9872Z" fill="white"/>
<path d="M57.1979 18.045C58.8252 18.045 59.9595 19.6595 59.4078 21.1904L55.4291 32.2315C54.9518 33.5559 53.6952 34.4388 52.2873 34.4388C50.8775 34.4388 49.6196 33.5535 49.1437 32.2265L45.1867 21.1904C44.6374 19.6584 45.7729 18.045 47.4004 18.045C48.4338 18.045 49.3462 18.7197 49.6489 19.7078L52.2619 28.2371C52.267 28.2538 52.2825 28.2653 52.3001 28.2653C52.3176 28.2653 52.3331 28.2538 52.3383 28.2371L54.9519 19.706C55.2542 18.7189 56.1656 18.045 57.1979 18.045Z" fill="white"/>
<path d="M78.5972 26.4339C78.5972 27.194 77.9319 27.7336 77.1719 27.7336H68.8614C67.4534 27.7336 66.3647 29.1248 67.4612 30.0081C68.1898 30.5595 69.0464 30.8352 70.031 30.8352C70.821 30.8352 71.5273 30.6063 72.1501 30.1485C72.7684 29.6939 73.4623 29.2992 74.2298 29.2992C76.0303 29.2992 77.2049 31.1695 75.9335 32.4445C75.5885 32.7905 75.2161 33.1107 74.8163 33.405C73.4181 34.4487 71.823 34.9705 70.031 34.9705C67.6286 34.9705 65.5806 34.1238 63.887 32.4302C62.1935 30.7367 61.3467 28.6887 61.3467 26.2862C61.3467 23.8838 62.1836 21.8161 63.8575 20.0832C65.5313 18.3502 67.5596 17.4838 69.9424 17.4838C72.4236 17.4838 74.4815 18.3502 76.1159 20.0832C77.7701 21.8161 78.5972 23.933 78.5972 26.4339ZM71.2031 24.4253C72.4789 24.4253 73.4027 23.1287 72.3646 22.3872C71.6753 21.8752 70.8778 21.6192 69.9719 21.6192C69.0661 21.6192 68.2686 21.8752 67.5793 22.3872C66.5411 23.1287 67.4649 24.4253 68.7408 24.4253H71.2031Z" fill="white"/>
</svg>
